<svg width="62" height="62" viewBox="0 0 62 62" fill="none" xmlns="http://www.w3.org/2000/svg">
<path d="M30.9999 10.6727C20.5135 10.6727 11.9819 19.2041 11.9819 29.6907C11.9821 36.1215 15.2653 42.1322 20.6187 45.6275V46.4207H29.1663V36.9416C26.7861 36.1672 25.0603 33.9285 25.0603 31.2933C25.0603 30.281 25.8811 29.4602 26.8934 29.4602C27.9058 29.4602 28.7265 30.281 28.7265 31.2933C28.7265 32.5465 29.7461 33.5662 30.9995 33.5662C32.2528 33.5662 33.2723 32.5466 33.2723 31.2933C33.2723 30.281 34.093 29.4602 35.1054 29.4602C36.1177 29.4602 36.9385 30.281 36.9385 31.2933C36.9385 33.9285 35.2128 36.1672 32.8325 36.9416V46.4207H41.3805V45.6278C46.7343 42.1324 50.0177 36.1217 50.0177 29.6907C50.018 19.2043 41.4864 10.6727 30.9999 10.6727Z" fill="#123B84"/>
<path d="M20.6189 50.0868V51.619C20.6189 57.3431 25.2758 61.9999 30.9999 61.9999C36.724 61.9999 41.3809 57.343 41.3809 51.619V50.0868H20.6189Z" fill="#123B84"/>
<path d="M31 0C29.9876 0 29.1669 0.820773 29.1669 1.83312V5.05118C29.1669 6.06353 29.9876 6.8843 31 6.8843C32.0123 6.8843 32.8331 6.06353 32.8331 5.05118V1.83312C32.8331 0.820773 32.0123 0 31 0Z" fill="#123B84"/>
<path d="M25.8434 5.52139L24.7056 2.511C24.3477 1.56404 23.2895 1.08657 22.3428 1.4444C21.3959 1.80224 20.9183 2.86011 21.2762 3.80718L22.414 6.81757C22.6913 7.55128 23.3886 8.00308 24.1291 8.00308C24.3444 8.00308 24.5636 7.96482 24.7768 7.88417C25.7238 7.52634 26.2014 6.46846 25.8434 5.52139Z" fill="#123B84"/>
<path d="M39.657 1.44431C38.7099 1.08636 37.6522 1.56408 37.2942 2.51103L36.1564 5.52142C35.7986 6.46837 36.2762 7.52625 37.2231 7.8842C37.4365 7.96485 37.6556 8.00312 37.8709 8.00312C38.6114 8.00312 39.3087 7.55119 39.5859 6.81749L40.7237 3.8071C41.0816 2.86002 40.604 1.80227 39.657 1.44431Z" fill="#123B84"/>
</svg>
