<svg width="64" height="64" viewBox="0 0 64 64" fill="none" xmlns="http://www.w3.org/2000/svg">
<g clip-path="url(#clip0_8020_609)">
<path d="M40.4372 24.1193C40.0241 23.7064 39.4484 23.4696 38.8575 23.4696C38.2581 23.4696 37.6974 23.7002 37.2779 24.1193L29.4556 31.9414L26.7544 29.2399C26.3326 28.8193 25.772 28.5876 25.1763 28.5876C24.58 28.5876 24.0191 28.8196 23.5967 29.2417C23.1747 29.6638 22.9421 30.2251 22.9421 30.8218C22.9421 31.419 23.1749 31.9802 23.5965 32.4017L27.8773 36.6828C28.2957 37.1004 28.8563 37.3302 29.4553 37.3302C30.0546 37.3302 30.6151 37.1002 31.0356 36.6812L40.4376 27.2794C41.3084 26.4085 41.3086 24.9913 40.4372 24.1193Z" fill="#123B84"/>
<path d="M58.0846 13.1898C58.0492 12.7828 57.8027 12.4242 57.4354 12.2456L32.5082 0.117046C32.1874 -0.039178 31.8124 -0.039178 31.4915 0.117046L6.56457 12.2455C6.19725 12.4242 5.95058 12.7826 5.91537 13.1896C5.88355 13.5553 5.16875 22.2699 7.9225 32.9136C9.54462 39.1835 12.0424 44.8081 15.3463 49.6311C19.4902 55.6801 24.9132 60.4706 31.4651 63.8695C31.6327 63.9565 31.8165 64 32.0001 64C32.1836 64 32.3674 63.9565 32.535 63.8695C39.0868 60.4706 44.5101 55.6803 48.6539 49.6311C51.9579 44.8081 54.4557 39.1835 56.0776 32.9136C58.8312 22.2699 58.1164 13.5555 58.0846 13.1898ZM31.9999 44.9904C23.8512 44.9904 17.2219 38.3611 17.2219 30.2124C17.2219 22.0638 23.8512 15.4345 31.9999 15.4345C40.1485 15.4345 46.7778 22.0638 46.7778 30.2124C46.7778 38.3611 40.1485 44.9904 31.9999 44.9904Z" fill="#123B84"/>
</g>
<defs>
<clipPath id="clip0_8020_609">
<rect width="64" height="64" fill="white"/>
</clipPath>
</defs>
</svg>
