<svg width="78" height="78" viewBox="0 0 78 78" fill="none" xmlns="http://www.w3.org/2000/svg">
<g clip-path="url(#clip0_8020_591)">
<path d="M48.3432 34.2256C48.3432 39.3687 44.1461 43.5658 39.003 43.5658C33.8553 43.5658 29.6582 39.3687 29.6582 34.2256C29.6582 29.0779 33.8553 24.8808 39.003 24.8808C44.1461 24.8808 48.3432 29.0779 48.3432 34.2256ZM63.8685 30.612C61.1477 29.0231 57.624 29.9463 56.035 32.6671L46.8502 48.3951C46.41 49.1507 45.5416 49.5057 44.6946 49.2756C40.726 48.2001 37.2754 48.2001 33.3069 49.2756C32.4598 49.5042 31.593 49.1507 31.1527 48.3951L21.9679 32.6671C20.379 29.9463 16.8553 29.0231 14.1344 30.612C11.4135 32.201 10.4858 35.7247 12.0747 38.4455L25.6135 61.6262C25.7948 61.9324 25.8771 62.2355 25.8771 62.589V76.0836C25.8771 77.1378 26.7363 78.0016 27.7951 78.0016H50.2125C51.2697 78.0016 52.1305 77.1378 52.1305 76.0836V62.589C52.1305 62.2355 52.2127 61.9324 52.394 61.6262L65.9328 38.4455C67.5126 35.7247 66.5894 32.201 63.8685 30.612ZM29.5455 8.27689L33.8385 11.3771C34.2011 11.6406 34.3474 12.0901 34.2057 12.5166L32.5604 17.547C32.4217 17.9751 32.565 18.423 32.9275 18.6865C33.2901 18.9501 33.7608 18.9501 34.1234 18.6865L38.4028 15.565C38.7653 15.3015 39.2361 15.3015 39.5987 15.565L43.878 18.6865C44.236 18.9501 44.7113 18.9501 45.0739 18.6865C45.4365 18.423 45.5797 17.9736 45.441 17.547L43.7957 12.5166C43.6525 12.0885 43.8003 11.6406 44.1629 11.3771L48.4559 8.27689C48.8185 8.01334 48.9648 7.56393 48.8231 7.13736C48.6844 6.71385 48.3051 6.43811 47.8557 6.43811L42.5617 6.44725C42.1123 6.44725 41.733 6.1715 41.5944 5.74342L39.9658 0.702363C39.8272 0.278848 39.4478 -0.00146484 38.9984 -0.00146484C38.5536 -0.00146484 38.1697 0.278848 38.0356 0.702363L36.4071 5.74189C36.2684 6.16998 35.8891 6.44572 35.4397 6.44572L30.1457 6.43658C29.6963 6.43658 29.317 6.71232 29.1738 7.13584C29.0367 7.56393 29.1829 8.01334 29.5455 8.27689ZM48.3264 22.6003C48.8703 23.0283 49.6564 22.9369 50.0891 22.3931L55.0296 16.1576C55.4576 15.6138 55.3617 14.8277 54.8224 14.3996C54.2785 13.9685 53.4924 14.0629 53.0598 14.6022L48.1192 20.8422C47.6912 21.383 47.7826 22.1737 48.3264 22.6003ZM51.4525 26.2291C51.8029 26.8247 52.5662 27.0319 53.1664 26.6831L60.0584 22.7054C60.6587 22.3595 60.8613 21.5917 60.5155 20.9915C60.1651 20.3913 59.3973 20.1887 58.8016 20.5345L51.9096 24.5122C51.3108 24.8595 51.1082 25.6288 51.4525 26.2291ZM27.9139 22.3931C28.345 22.9369 29.1311 23.0283 29.6765 22.6003C30.2158 22.1722 30.3118 21.383 29.8837 20.8422L24.9432 14.6022C24.5121 14.0629 23.726 13.9669 23.1806 14.3996C22.6413 14.8277 22.5453 15.6138 22.9734 16.1576L27.9139 22.3931ZM17.9415 22.7038L24.8335 26.6815C25.4292 27.0319 26.1985 26.8247 26.5474 26.2276C26.8932 25.6273 26.6906 24.858 26.0903 24.5091L19.1983 20.5314C18.5981 20.1856 17.8333 20.3882 17.4844 20.9885C17.1386 21.5902 17.3412 22.3596 17.9415 22.7038Z" fill="#123B84"/>
</g>
<defs>
<clipPath id="clip0_8020_591">
<rect width="78" height="78" fill="white"/>
</clipPath>
</defs>
</svg>
