<svg width="74" height="74" viewBox="0 0 74 74" fill="none" xmlns="http://www.w3.org/2000/svg">
<path d="M37.5185 26.1876H45.442V34.1112C45.442 34.8917 46.0801 35.5284 46.8704 35.5284H52.0685C52.8602 35.5284 53.4982 34.8917 53.4982 34.1112V26.1876H54.8791H60.0493H61.4106C62.2023 26.1876 62.839 25.5496 62.839 24.7593V19.5598C62.839 18.7695 62.2023 18.1314 61.4106 18.1314H53.4982V10.219C53.4982 9.42732 52.8602 8.79065 52.0685 8.79065H46.8704C46.0801 8.79065 45.442 9.42732 45.442 10.219V18.1314H37.5185C36.7379 18.1314 36.0999 18.7695 36.0999 19.5598V24.7593C36.0999 25.5496 36.7379 26.1876 37.5185 26.1876Z" fill="#123B84"/>
<path d="M14.4315 62.4509C13.9442 62.9564 13.281 63.2412 12.5648 63.251L4.26001 63.3613V38.3367L12.009 38.3353C13.4067 38.3172 14.6549 39.4244 14.6856 40.8136L14.9649 53.5877L15.1212 60.7001C15.1352 61.3521 14.8909 61.9734 14.4315 62.4509ZM69.4093 51.2378C68.996 52.1538 68.256 52.8267 67.287 53.1493L39.1126 64.4922C35.3651 65.7279 31.2058 65.3551 27.6971 63.4646L25.4044 62.2289C22.9987 60.9319 20.304 60.2561 17.5884 60.3105L16.5105 60.3273L16.093 41.2981L19.5654 41.2437C22.4431 41.2018 25.2662 41.9892 27.739 43.5279C30.4393 45.2076 33.5166 46.0537 36.672 46.0215L43.9547 45.9085C45.4096 45.9057 46.6397 47.1106 46.6732 48.6409C46.6899 49.4018 46.4149 50.1153 45.9011 50.65C45.8634 50.6877 45.8201 50.7156 45.7796 50.7534L45.7698 50.7618C45.3021 51.189 44.7143 51.4361 44.0846 51.4459L30.8637 51.6525C30.4783 51.6581 30.1712 51.9765 30.1767 52.3618C30.1824 52.743 30.4937 53.0488 30.8748 53.0488H30.8861L44.1069 52.8421C45.0116 52.8281 45.8592 52.4931 46.5531 51.9206L65.0335 46.2379C66.7578 45.5887 68.6903 46.4586 69.4372 48.2122C69.8505 49.1812 69.8407 50.2842 69.4093 51.2378Z" fill="#123B84"/>
</svg>
