<svg width="58" height="58" viewBox="0 0 58 58" fill="none" xmlns="http://www.w3.org/2000/svg">
<path fill-rule="evenodd" clip-rule="evenodd" d="M56.0599 27.1618C54.9641 28.535 52.9441 28.7619 51.5709 27.6661L28.9999 9.65451L6.42891 27.6661C5.05571 28.7619 3.03579 28.535 1.94002 27.1618C0.844254 25.7886 1.07116 23.7687 2.44435 22.6728L27.1648 2.94599C28.2511 2.07916 29.7489 2.07916 30.8351 2.94599L55.5556 22.6729C56.9288 23.7687 57.1557 25.7887 56.0599 27.1618ZM39.807 6.96997H41.2853V9.25621L48.903 15.3351V6.96997H50.3812C50.73 6.96997 51.0156 6.68438 51.0156 6.33559V3.51568C51.0156 3.16689 50.7301 2.88131 50.3812 2.88131H39.807C39.458 2.88131 39.1725 3.16677 39.1725 3.51568V6.33559C39.1725 6.6845 39.4581 6.96997 39.807 6.96997ZM29 11.6834L49.1768 27.7845V53.1823C49.1768 54.5713 48.044 55.7041 46.655 55.7041H11.345C9.95603 55.7041 8.82311 54.5712 8.82311 53.1823V27.7845L29 11.6834ZM29.0159 25.2797C26.8062 22.8172 24.1094 21.8294 21.5022 22.5611C18.7426 23.337 16.7387 25.8918 16.3975 29.0702C16.1241 31.6157 16.9809 34.2185 18.9452 36.8119V39.764H15.0565C14.6186 39.764 14.2631 40.1195 14.2631 40.5568V45.1527C14.2631 45.5912 14.6186 45.946 15.0565 45.946H18.9452V49.8347C18.9452 50.2732 19.3007 50.6275 19.7381 50.6275H24.3345C24.7723 50.6275 25.1273 50.2732 25.1273 49.8347V45.946H29.0161C29.454 45.946 29.8095 45.5911 29.8095 45.1527V44.486C40.2738 38.3029 42.025 32.7001 41.6357 29.0702C41.2934 25.8918 39.2894 23.337 36.5299 22.5611C33.9232 21.8283 31.2258 22.8172 29.0161 25.2797H29.0159ZM28.3875 27.0041C26.4878 24.5323 24.1345 23.4697 21.9313 24.0884C19.7992 24.6874 18.2462 26.7098 17.9743 29.2395C17.7712 31.1276 18.3391 33.09 19.6633 35.0859C19.6879 35.0837 19.7128 35.0824 19.738 35.0824H24.3344C24.7722 35.0824 25.1272 35.4379 25.1272 35.8753V39.764H29.0159C29.4539 39.764 29.8094 40.1195 29.8094 40.5568V42.6345C33.4034 40.4223 36.1016 38.1361 37.8418 35.83C39.5404 33.5776 40.2863 31.3596 40.0581 29.2395C39.7867 26.7098 38.2333 24.6873 36.1005 24.0884C33.8979 23.4686 31.544 24.5323 29.645 27.0041C29.4949 27.2001 29.2628 27.3148 29.0159 27.3148C28.7691 27.3148 28.5377 27.2002 28.3875 27.0041ZM23.5409 40.5568V36.6681H20.5313V40.5568C20.5313 40.9952 20.1764 41.3501 19.738 41.3501H15.8491V44.3598H19.738C20.1764 44.3598 20.5313 44.7158 20.5313 45.1527V49.0419H23.5409V45.1527C23.5409 44.7158 23.8964 44.3598 24.3344 44.3598H28.2231V41.3501H24.3344C23.8964 41.3501 23.5409 40.9952 23.5409 40.5568Z" fill="#123B84"/>
</svg>
