<svg width="37" height="37" viewBox="0 0 37 37" fill="none" xmlns="http://www.w3.org/2000/svg">
<g clip-path="url(#clip0_8175_80)">
<path d="M0.834534 8.33057L1.5186 6.27621L6.11348 7.80622L5.42942 9.86058L0.834534 8.33057Z" fill="#123B84"/>
<path d="M9.85897 5.43106L8.07405 0L6.01843 0.685181L7.80335 6.11625L9.85897 5.43106Z" fill="#123B84"/>
<path d="M0.847046 28.6885L5.44193 27.1536L6.12816 29.208L1.53327 30.7428L0.847046 28.6885Z" fill="#123B84"/>
<path d="M9.859 31.5782L7.80338 30.8931L6.02698 36.2935L8.08252 36.9786L9.859 31.5782Z" fill="#123B84"/>
<path d="M27.1411 5.4311L29.1967 6.11628L30.9646 0.735962L28.9091 0.0507812L27.1411 5.4311Z" fill="#123B84"/>
<path d="M30.905 7.79883L35.4999 6.26397L36.1861 8.31833L31.5912 9.85318L30.905 7.79883Z" fill="#123B84"/>
<path d="M30.9795 36.3146L29.1967 30.8931L27.1411 31.5782L28.9239 36.9998L30.9795 36.3146Z" fill="#123B84"/>
<path d="M30.8899 29.1831L31.574 27.1287L36.1688 28.6588L35.4848 30.7131L30.8899 29.1831Z" fill="#123B84"/>
<path d="M15.2517 4.42871C12.8641 4.42871 10.9206 6.37114 10.9206 8.75982C8.78018 8.75982 7.00875 10.3246 6.66248 12.3689C6.84049 13.3847 7.68816 14.1737 8.75506 14.1737C9.94994 14.1737 10.9206 13.2 10.9206 12.0081L13.0862 12.0074C13.0862 14.3961 11.1427 16.3393 8.75506 16.3393C7.55715 16.3393 6.47177 15.8496 5.68676 15.0606C4.89409 16.0174 4.42395 17.2261 4.42395 18.5048C4.42395 19.7835 4.89409 20.9922 5.68676 21.949C6.47177 21.1601 7.55715 20.6704 8.75506 20.6704C11.1427 20.6704 13.0862 22.6128 13.0862 25.0015H10.9206C10.9206 23.8077 9.94994 22.8359 8.75506 22.8359C7.68816 22.8359 6.84049 23.6249 6.66248 24.6408C7.00875 26.685 8.78018 28.2498 10.9206 28.2498C10.9206 30.6385 12.8641 32.5809 15.2517 32.5809C16.0454 32.5809 16.7768 32.3466 17.4173 31.9721V27.167H19.5828V31.9721C20.2233 32.3465 20.9547 32.5809 21.7484 32.5809C24.136 32.5809 26.0795 30.6385 26.0795 28.2498C28.2199 28.2498 29.9913 26.685 30.3376 24.6408C30.1596 23.6249 29.3119 22.8359 28.245 22.8359C27.0502 22.8359 26.0795 23.8077 26.0795 25.0015H23.9139C23.9139 22.6128 25.8574 20.6704 28.245 20.6704C29.4429 20.6704 30.5283 21.1601 31.3133 21.949C32.106 20.9922 32.5761 19.7835 32.5761 18.5048C32.5761 17.2261 32.106 16.0174 31.3133 15.0606C30.5283 15.8496 29.4429 16.3393 28.245 16.3393C25.8574 16.3393 23.9139 14.3968 23.9139 12.0081H26.0795C26.0795 13.2019 27.0502 14.1737 28.245 14.1737C29.3119 14.1737 30.1596 13.3847 30.3376 12.3689C29.9913 10.3246 28.2199 8.75982 26.0795 8.75982C26.0795 6.37114 24.136 4.42871 21.7484 4.42871C20.9547 4.42871 20.2233 4.66302 19.5828 5.03752V9.84259H17.4173V5.03745C16.7767 4.66302 16.0454 4.42871 15.2517 4.42871ZM19.5828 14.1737V22.8359H17.4173V14.1737H19.5828Z" fill="#123B84"/>
</g>
<defs>
<clipPath id="clip0_8175_80">
<rect width="37" height="37" fill="white"/>
</clipPath>
</defs>
</svg>
