<svg width="76" height="76" viewBox="0 0 76 76" fill="none" xmlns="http://www.w3.org/2000/svg">
<path d="M38 3.04004C30.6272 9.72136 22.3204 12.4693 13.1067 11.3109V29.9988C13.1067 45.5975 23.1736 59.4002 38 64.1777C52.8354 59.4092 62.8933 45.6065 62.8933 29.9988V11.3109C53.6796 12.4693 45.3728 9.72136 38 3.04004ZM30.3668 54.946C30.2141 55.1705 29.9716 55.2962 29.7202 55.2962C29.5765 55.2962 29.4328 55.2513 29.2981 55.1705C21.9433 50.3661 17.5519 42.2389 17.5519 33.4203V22.3476C17.5519 21.9166 17.9022 21.5753 18.3242 21.5753C18.7463 21.5753 19.0965 21.9256 19.0965 22.3476V33.4203C19.0965 41.7181 23.2275 49.3603 30.1423 53.8774C30.5015 54.1019 30.6003 54.5868 30.3668 54.946ZM38 47.5912C30.277 47.5912 24.0267 41.3319 24.0267 33.6179C24.0267 25.8859 30.2859 19.6356 38 19.6356C45.723 19.6356 51.9733 25.8948 51.9733 33.6179C51.9733 41.3319 45.723 47.5912 38 47.5912Z" fill="#123B84"/>
<path d="M39.9487 26.1104H36.0512V31.6512H30.4924V35.5576H36.0512V41.1074H39.9487V35.5576H45.5074V31.6512H39.9487V26.1104Z" fill="#00FFC3"/>
</svg>
