<svg width="24" height="24" viewBox="0 0 24 24" fill="none" xmlns="http://www.w3.org/2000/svg">
<path d="M21 9.4875H20.5724C20.5306 9.48434 20.4907 9.46819 20.4584 9.44129C20.4262 9.41439 20.4031 9.37809 20.3924 9.33745C20.2422 8.85848 20.0489 8.39409 19.8149 7.94995C19.7947 7.91215 19.7861 7.86924 19.7901 7.82656C19.7941 7.78388 19.8106 7.74333 19.8374 7.70995L20.1376 7.40995C20.2605 7.28902 20.3581 7.14484 20.4247 6.98581C20.4913 6.82679 20.5257 6.65609 20.5257 6.48366C20.5257 6.31124 20.4913 6.14054 20.4247 5.98151C20.3581 5.82249 20.2605 5.67831 20.1376 5.55738L18.4426 3.8625C18.3217 3.73957 18.1775 3.64194 18.0185 3.5753C17.8594 3.50865 17.6887 3.47433 17.5163 3.47433C17.3439 3.47433 17.1732 3.50865 17.0142 3.5753C16.8551 3.64194 16.711 3.73957 16.5901 3.8625L16.2824 4.1625C16.2507 4.19009 16.2107 4.20649 16.1687 4.2092C16.1267 4.21191 16.085 4.20077 16.0499 4.1775C15.6042 3.94912 15.1401 3.75845 14.6625 3.6075C14.6219 3.59685 14.5856 3.57378 14.5587 3.54151C14.5318 3.50924 14.5157 3.46938 14.5126 3.4275V3C14.5109 2.65242 14.3721 2.31954 14.1263 2.07376C13.8805 1.82798 13.5476 1.68916 13.2001 1.6875H10.7999C10.4523 1.68916 10.1195 1.82798 9.87369 2.07376C9.6279 2.31954 9.48909 2.65242 9.48743 3V3.42755C9.48429 3.46944 9.46814 3.5093 9.44125 3.54157C9.41436 3.57385 9.37806 3.59691 9.33742 3.60755C8.85849 3.75781 8.39413 3.95109 7.95004 4.18505C7.91222 4.20522 7.86931 4.21384 7.82663 4.20984C7.78396 4.20584 7.7434 4.1894 7.70998 4.16255L7.40987 3.86255C7.28898 3.73963 7.14483 3.64201 6.98582 3.57537C6.82682 3.50873 6.65613 3.47441 6.48373 3.47441C6.31132 3.47441 6.14064 3.50873 5.98163 3.57537C5.82262 3.64201 5.67847 3.73963 5.55758 3.86255L3.86242 5.55743C3.73952 5.67836 3.64191 5.82254 3.57528 5.98157C3.50865 6.1406 3.47433 6.31129 3.47433 6.48372C3.47433 6.65614 3.50865 6.82684 3.57528 6.98587C3.64191 7.14489 3.73952 7.28907 3.86242 7.41L4.16254 7.7175C4.19016 7.74925 4.20659 7.7892 4.2093 7.83119C4.21201 7.87319 4.20085 7.91492 4.17754 7.94996C3.94917 8.39575 3.75851 8.85987 3.60754 9.33746C3.59689 9.37809 3.57383 9.4144 3.54156 9.4413C3.50929 9.46819 3.46943 9.48435 3.42754 9.48751H3C2.65241 9.48916 2.31953 9.62797 2.07375 9.87375C1.82796 10.1195 1.68915 10.4524 1.6875 10.8V13.2C1.68915 13.5476 1.82796 13.8805 2.07374 14.1263C2.31953 14.372 2.65241 14.5109 3 14.5125H3.42755C3.46944 14.5157 3.5093 14.5318 3.54157 14.5587C3.57384 14.5856 3.59691 14.6219 3.60755 14.6626C3.75782 15.1415 3.95111 15.6059 4.18505 16.0501C4.20526 16.0878 4.21391 16.1307 4.20991 16.1734C4.20591 16.2161 4.18944 16.2566 4.16255 16.29L3.86244 16.59C3.73953 16.7109 3.64192 16.8551 3.57529 17.0141C3.50866 17.1732 3.47435 17.3439 3.47435 17.5163C3.47435 17.6887 3.50866 17.8594 3.57529 18.0184C3.64192 18.1775 3.73953 18.3217 3.86244 18.4426L5.55762 20.1375C5.67851 20.2604 5.82266 20.358 5.98167 20.4247C6.14068 20.4913 6.31136 20.5256 6.48376 20.5256C6.65617 20.5256 6.82685 20.4913 6.98586 20.4247C7.14487 20.358 7.28902 20.2604 7.40991 20.1375L7.71002 19.8375C7.74344 19.8107 7.784 19.7942 7.82667 19.7902C7.86935 19.7862 7.91226 19.7948 7.95007 19.815C8.36865 20.0344 8.80525 20.2176 9.25508 20.3626V17.1226C8.11332 16.5108 7.20862 15.5352 6.68459 14.3507C6.16056 13.1661 6.04723 11.8404 6.36258 10.5841C6.67794 9.32777 7.40391 8.21277 8.42526 7.41611C9.4466 6.61945 10.7048 6.18678 12.0001 6.18678C13.2954 6.18678 14.5536 6.61945 15.5749 7.41611C16.5963 8.21277 17.3223 9.32777 17.6376 10.5841C17.953 11.8404 17.8396 13.1661 17.3156 14.3507C16.7916 15.5352 15.8869 16.5108 14.7451 17.1226V20.3625C15.1949 20.2175 15.6314 20.0344 16.0499 19.8149C16.0878 19.7948 16.1307 19.7861 16.1733 19.7901C16.216 19.7941 16.2566 19.8106 16.29 19.8374L16.5901 20.1374C16.711 20.2604 16.8552 20.358 17.0142 20.4246C17.1732 20.4913 17.3439 20.5256 17.5163 20.5256C17.6888 20.5256 17.8595 20.4913 18.0185 20.4246C18.1775 20.358 18.3217 20.2604 18.4426 20.1374L20.1376 18.4425C20.2605 18.3216 20.3581 18.1774 20.4247 18.0184C20.4914 17.8593 20.5257 17.6886 20.5257 17.5162C20.5257 17.3438 20.4914 17.1731 20.4247 17.0141C20.3581 16.855 20.2605 16.7109 20.1376 16.5899L19.8375 16.2825C19.8099 16.2508 19.7934 16.2108 19.7907 16.1688C19.788 16.1268 19.7992 16.0851 19.8225 16.05C20.0509 15.6043 20.2415 15.1401 20.3925 14.6625C20.4031 14.6219 20.4262 14.5856 20.4585 14.5587C20.4907 14.5318 20.5306 14.5157 20.5725 14.5125H21C21.3476 14.5108 21.6805 14.372 21.9263 14.1262C22.172 13.8805 22.3109 13.5476 22.3125 13.2V10.8C22.3109 10.4524 22.172 10.1195 21.9263 9.87374C21.6805 9.62796 21.3476 9.48915 21 9.4875Z" fill="#123B84"/>
<path d="M10.3476 7.8662L8.84605 9.53209C8.22693 10.2191 7.86675 11.1006 7.82755 12.0246C7.78835 12.9486 8.07257 13.8574 8.63127 14.5944L10.0077 15.927V21.75C10.0077 21.9489 10.0867 22.1397 10.2273 22.2803C10.368 22.421 10.5588 22.5 10.7577 22.5H13.242C13.441 22.5 13.6317 22.421 13.7724 22.2803C13.913 22.1397 13.992 21.9489 13.992 21.75V15.927L15.3685 14.5944C15.9272 13.8574 16.2114 12.9486 16.1722 12.0246C16.133 11.1006 15.7728 10.2191 15.1537 9.53209L13.6522 7.8662C13.6254 7.83643 13.5902 7.81548 13.5512 7.80613C13.5123 7.79678 13.4714 7.79946 13.434 7.81382C13.3966 7.82818 13.3644 7.85354 13.3417 7.88656C13.319 7.91958 13.3069 7.9587 13.3069 7.99877V12.5442C13.3069 12.5924 13.2883 12.6387 13.255 12.6736C13.2217 12.7085 13.1763 12.7292 13.1282 12.7315L11.9999 12.785L10.8716 12.7315C10.8234 12.7292 10.778 12.7085 10.7447 12.6736C10.7115 12.6387 10.6929 12.5924 10.6929 12.5442V7.99874C10.6929 7.95868 10.6807 7.91956 10.658 7.88654C10.6353 7.85353 10.6032 7.82817 10.5658 7.81381C10.5284 7.79946 10.4875 7.79678 10.4485 7.80613C10.4096 7.81548 10.3744 7.83643 10.3476 7.8662Z" fill="#123B84"/>
</svg>
