<svg width="25" height="25" viewBox="0 0 25 25" fill="none" xmlns="http://www.w3.org/2000/svg">
<g clip-path="url(#clip0_8020_575)">
<path fill-rule="evenodd" clip-rule="evenodd" d="M13.9805 1.42289L15.4691 2.53715C15.8762 2.84188 16.3048 2.99784 16.8125 3.02611L18.669 3.12938C19.7807 3.1912 20.6836 3.94877 20.9375 5.03285L21.3616 6.84325C21.4776 7.33837 21.7056 7.73329 22.0764 8.08129L23.4322 9.3538C24.244 10.1157 24.4487 11.2764 23.9464 12.2701L23.1076 13.9295C22.8782 14.3833 22.799 14.8324 22.8593 15.3373L23.08 17.1836C23.2122 18.2891 22.6229 19.3098 21.5994 19.7481L19.8902 20.4802C19.4227 20.6804 19.0734 20.9735 18.795 21.3991L17.7773 22.9552C17.1679 23.887 16.0604 24.2901 14.9947 23.968L13.2148 23.4301C12.728 23.283 12.272 23.283 11.7852 23.4301L10.0053 23.968C8.93962 24.2901 7.8321 23.887 7.22272 22.9552L6.205 21.3991C5.92663 20.9735 5.57731 20.6804 5.10988 20.4802L3.40051 19.748C2.37707 19.3097 1.78776 18.2891 1.91989 17.1835L2.14059 15.3372C2.20095 14.8323 2.12175 14.3832 1.89235 13.9294L1.05353 12.27C0.551288 11.2764 0.755927 10.1157 1.56774 9.3537L2.92355 8.08119C3.29435 7.73319 3.52233 7.33827 3.6383 6.84315L4.06242 5.03275C4.31633 3.94872 5.21921 3.19115 6.33088 3.12928L8.18737 3.02601C8.69514 2.99779 9.12365 2.84178 9.53078 2.53705L11.0194 1.42279C11.9106 0.755701 13.0892 0.755701 13.9805 1.42289ZM11.5504 13.1377L9.93493 11.5223C9.51623 11.1036 8.83708 11.1036 8.41843 11.5223C7.99973 11.941 7.99973 12.6201 8.41843 13.0388L10.7945 15.4147C11.2132 15.8334 11.8923 15.8334 12.311 15.4147C13.7431 13.9826 15.159 12.5343 16.5845 11.0956C17.0002 10.6761 16.9989 9.99911 16.5799 9.58246C16.1609 9.16571 15.482 9.16688 15.0658 9.58715L11.5504 13.1377ZM12.4999 4.51434C10.2948 4.51434 8.29836 5.40819 6.85324 6.85331C5.40812 8.29847 4.51428 10.2949 4.51428 12.5C4.51428 14.7051 5.40812 16.7016 6.85324 18.1467C8.29836 19.5918 10.2948 20.4856 12.4999 20.4856C14.705 20.4856 16.7015 19.5918 18.1466 18.1467C19.5917 16.7016 20.4856 14.7051 20.4856 12.5C20.4856 10.2949 19.5917 8.29843 18.1466 6.85331C16.7015 5.40819 14.705 4.51434 12.4999 4.51434ZM17.5942 7.4057C16.2905 6.10199 14.4894 5.29559 12.4999 5.29559C10.5105 5.29559 8.70935 6.10199 7.40563 7.4057C6.10192 8.70941 5.29553 10.5105 5.29553 12.5C5.29553 14.4894 6.10192 16.2906 7.40563 17.5943C8.70935 18.898 10.5105 19.7044 12.4999 19.7044C14.4894 19.7044 16.2905 18.898 17.5942 17.5943C18.8979 16.2906 19.7043 14.4895 19.7043 12.5C19.7043 10.5105 18.8979 8.70941 17.5942 7.4057Z" fill="#123B84"/>
</g>
<defs>
<clipPath id="clip0_8020_575">
<rect width="25" height="25" fill="white"/>
</clipPath>
</defs>
</svg>
