<svg width="23" height="23" viewBox="0 0 23 23" fill="none" xmlns="http://www.w3.org/2000/svg">
<path fill-rule="evenodd" clip-rule="evenodd" d="M11.2238 22.8787L6.50795 20.1301L5.14709 19.3486L1.48218 11.5472V6.03632L11.2238 11.655V22.8787ZM4.33865 18.8905L1.61692 17.3409C1.53607 17.3005 1.48218 17.2062 1.48218 17.1119V12.8272L4.33865 18.8905ZM13.0698 19.6315C12.9754 19.6315 12.8946 19.5776 12.8407 19.4968C12.7599 19.362 12.8003 19.2004 12.935 19.1195L15.7645 17.4622C15.8858 17.3814 16.0475 17.4353 16.1283 17.5565C16.2092 17.6913 16.1553 17.853 16.034 17.9203L13.2045 19.5911C13.1641 19.618 13.1237 19.6315 13.0698 19.6315ZM9.7417 17.9203C9.70128 17.9203 9.64738 17.9069 9.60696 17.8799L6.77743 16.2226C6.65617 16.1418 6.61575 15.9801 6.68312 15.8453C6.76396 15.7241 6.92565 15.6837 7.06039 15.751L9.88991 17.4218C10.0112 17.5026 10.0516 17.6643 9.98423 17.7856C9.93033 17.8664 9.83602 17.9203 9.7417 17.9203ZM9.7417 19.6315C9.70128 19.6315 9.64738 19.618 9.60696 19.5911L6.77743 17.9338C6.65617 17.853 6.61575 17.6913 6.68312 17.5565C6.76396 17.4353 6.92565 17.3948 7.06039 17.4622L9.88991 19.133C10.0112 19.2004 10.0516 19.3755 9.98423 19.4968C9.93033 19.5776 9.83602 19.6315 9.7417 19.6315ZM13.0698 17.9203C12.9754 17.9203 12.8946 17.8664 12.8407 17.7856C12.7599 17.6508 12.8003 17.4892 12.935 17.4218L15.7645 15.751C15.8858 15.6702 16.0475 15.7241 16.1283 15.8453C16.2092 15.9801 16.1553 16.1418 16.034 16.2091L13.2045 17.8799C13.1641 17.9069 13.1237 17.9203 13.0698 17.9203ZM1.75166 5.57821L6.10374 3.099L15.805 8.70416L11.4933 11.1834L1.75166 5.57821ZM6.64269 2.7891L11.3586 0.0404218C11.4529 -0.0134739 11.5472 -0.0134739 11.628 0.0404218L16.4787 2.86995L21.2484 5.57821L16.3439 8.39426L6.64269 2.7891ZM21.5179 6.03632V17.1119C21.5179 17.2062 21.464 17.3005 21.3832 17.3409L16.4787 20.1301L11.7628 22.8787V11.655L16.0744 9.17575V11.8975C16.0744 12.0457 16.1957 12.167 16.3439 12.167C16.4921 12.167 16.6134 12.0457 16.6134 11.8975V8.86585L21.5179 6.03632Z" fill="#123B84"/>
</svg>
