<svg width="21" height="21" viewBox="0 0 21 21" fill="none" xmlns="http://www.w3.org/2000/svg">
<g clip-path="url(#clip0_8168_586)">
<g clip-path="url(#clip1_8168_586)">
<path d="M14.2059 5.8335H8.32979C7.72229 5.8335 7.22803 6.32776 7.22803 6.93526V12.8113C7.22803 13.4188 7.72229 13.9131 8.32979 13.9131H14.2059C14.8134 13.9131 15.3076 13.4188 15.3076 12.8113V6.93526C15.3076 6.32776 14.8134 5.8335 14.2059 5.8335ZM11.2678 12.4441C9.85046 12.4441 8.69705 11.2907 8.69705 9.8733C8.69705 8.45593 9.85046 7.30252 11.2678 7.30252C12.6852 7.30252 13.8386 8.45593 13.8386 9.8733C13.8386 11.2907 12.6852 12.4441 11.2678 12.4441ZM13.8386 8.03703C13.4337 8.03703 13.1041 7.70745 13.1041 7.30252C13.1041 6.89758 13.4337 6.56801 13.8386 6.56801C14.2436 6.56801 14.5731 6.89758 14.5731 7.30252C14.5731 7.70745 14.2436 8.03703 13.8386 8.03703Z" fill="#123B84"/>
<path d="M11.2679 8.03711C10.2555 8.03711 9.43164 8.86095 9.43164 9.87339C9.43164 10.8858 10.2555 11.7097 11.2679 11.7097C12.2804 11.7097 13.1042 10.8858 13.1042 9.87339C13.1042 8.86095 12.2804 8.03711 11.2679 8.03711Z" fill="#123B84"/>
<path d="M15.6749 3.60547H6.86076C5.84832 3.60547 5 4.45379 5 5.46623V14.2804C5 15.2928 5.84832 16.1411 6.86076 16.1411H15.6749C16.6873 16.1411 17.5356 15.2928 17.5356 14.2804V5.46623C17.5356 4.45379 16.6873 3.60547 15.6749 3.60547ZM16.0421 12.8113C16.0421 13.8238 15.2183 14.6476 14.2059 14.6476H8.32978C7.31734 14.6476 6.4935 13.8238 6.4935 12.8113V6.93525C6.4935 5.92281 7.31734 5.09897 8.32978 5.09897H14.2059C15.2183 5.09897 16.0421 5.92281 16.0421 6.93525V12.8113Z" fill="#123B84"/>
</g>
</g>
<defs>
<clipPath id="clip0_8168_586">
<rect width="13.5211" height="15.2113" fill="white" transform="translate(4.09863 2.53516)"/>
</clipPath>
<clipPath id="clip1_8168_586">
<rect width="13.4999" height="12.5356" fill="white" transform="translate(5 3.60547)"/>
</clipPath>
</defs>
</svg>
