<svg width="20" height="27" viewBox="0 0 20 27" fill="none" xmlns="http://www.w3.org/2000/svg">
<path d="M8.76562 26.3933C6.04688 22.999 0 14.7722 0 10.1513C0 4.54481 4.47708 0 10 0C15.5208 0 20 4.54481 20 10.1513C20 14.7722 13.9062 22.999 11.2344 26.3933C10.5938 27.2022 9.40625 27.2022 8.76562 26.3933ZM10 13.535C11.8385 13.535 13.3333 12.0176 13.3333 10.1513C13.3333 8.28492 11.8385 6.76751 10 6.76751C8.16146 6.76751 6.66667 8.28492 6.66667 10.1513C6.66667 12.0176 8.16146 13.535 10 13.535Z" fill="#123B84"/>
</svg>
