<svg width="73" height="73" viewBox="0 0 73 73" fill="none" xmlns="http://www.w3.org/2000/svg">
<path d="M19.1835 39.3837L23.6663 41.5643C24.8218 41.9675 26.0018 42.297 27.199 42.551C26.0774 41.591 25.1189 40.4556 24.3607 39.1888C22.9853 36.9586 22.2557 34.3904 22.2532 31.7701V28.3837C22.2565 28.0821 22.3697 27.7919 22.5715 27.5677C22.7733 27.3435 23.0499 27.2005 23.3496 27.1655C27.4061 26.7391 38.1868 24.5465 39.2345 19.6616C39.2996 19.3829 39.4604 19.1359 39.6891 18.9638C39.9177 18.7916 40.1995 18.7053 40.4853 18.7198C40.7711 18.7343 41.0428 18.8488 41.2528 19.0432C41.4628 19.2376 41.5978 19.4996 41.6343 19.7835C41.7087 20.7267 41.9742 21.6449 42.4146 22.4823C42.8549 23.3198 43.461 24.0589 44.1959 24.6548C44.9308 25.2507 45.7792 25.6909 46.6896 25.9487C47.5999 26.2065 48.5532 26.2765 49.4914 26.1545C49.6573 26.1432 49.8237 26.166 49.9805 26.2214C50.1373 26.2767 50.2811 26.3635 50.4031 26.4764C50.5252 26.5893 50.6229 26.726 50.6902 26.878C50.7576 27.03 50.7932 27.1941 50.7949 27.3604V31.7701C50.7916 34.3217 50.1016 36.8254 48.7971 39.0183C48.0351 40.3249 47.0639 41.4978 45.9223 42.4901C46.8916 42.2538 47.8595 42.0007 48.7971 41.6861L53.7307 39.5056C54.1163 39.3356 54.4446 39.0577 54.6758 38.7054C54.9071 38.3531 55.0315 37.9414 55.0341 37.52V22.5365C55.0097 20.3994 54.4494 18.3026 53.4044 16.4382C52.3594 14.5738 50.8632 13.0015 49.0529 11.8654C48.7477 13.3599 47.9963 16.6937 47.6642 18.212C47.6184 18.4033 47.5276 18.5809 47.3993 18.73C47.271 18.8791 47.109 18.9954 46.9267 19.0693C46.7444 19.1431 46.5471 19.1724 46.3512 19.1546C46.1553 19.1369 45.9665 19.0726 45.8005 18.9671C42.9827 17.1136 39.6837 16.1258 36.3109 16.1258C32.9381 16.1259 29.6391 17.1136 26.8214 18.9672C26.6547 19.0737 26.4649 19.1385 26.268 19.1561C26.071 19.1736 25.8727 19.1435 25.6899 19.0682C25.507 18.9929 25.345 18.8747 25.2176 18.7236C25.0901 18.5724 25.0009 18.3927 24.9576 18.1998C24.6998 17.0368 23.6054 12.0846 23.6054 12.0846C21.8918 13.2424 20.4838 14.7978 19.5016 16.6178C18.5195 18.4379 17.9924 20.4686 17.9653 22.5365V37.4225C17.9672 37.8301 18.082 38.2292 18.297 38.5754C18.5121 38.9216 18.819 39.2014 19.1835 39.3837Z" fill="#123B84"/>
<path d="M48.3586 31.7701V28.603C46.6 28.6105 44.8784 28.099 43.4092 27.1326C41.9401 26.1661 40.7887 24.7877 40.0993 23.1699C36.4692 27.4579 27.8933 29.005 24.6895 29.4435V31.7701C24.6895 34.9088 25.9363 37.919 28.1557 40.1384C30.3751 42.3578 33.3853 43.6047 36.524 43.6047C39.6627 43.6047 42.6728 42.3578 44.8922 40.1384C47.1116 37.919 48.3586 34.9088 48.3586 31.7701Z" fill="#123B84"/>
<path d="M45.6419 16.0315C46.1583 13.7689 47.2265 8.81918 47.7372 6.51754C40.3426 3.91067 32.2789 3.9107 24.8843 6.51761L26.9796 16.0315C29.8502 14.496 33.0553 13.6926 36.3108 13.6926C39.5662 13.6926 42.7713 14.496 45.6419 16.0315ZM34.5201 8.14993H35.3362V7.34591C35.3362 7.08745 35.4389 6.83958 35.6216 6.65682C35.8044 6.47406 36.0523 6.37139 36.3107 6.37139C36.5692 6.37139 36.817 6.47406 36.9998 6.65682C37.1826 6.83958 37.2852 7.08745 37.2852 7.34591V8.14993H38.1014C38.3573 8.15386 38.6014 8.25826 38.7809 8.44061C38.9605 8.62295 39.0612 8.8686 39.0611 9.12452C39.0611 9.38043 38.9605 9.62607 38.7809 9.80841C38.6013 9.99074 38.3572 10.0951 38.1014 10.099H37.2852V10.9152C37.2852 11.1736 37.1826 11.4215 36.9998 11.6043C36.817 11.787 36.5692 11.8897 36.3107 11.8897C36.0523 11.8897 35.8044 11.787 35.6216 11.6043C35.4389 11.4215 35.3362 11.1736 35.3362 10.9152V10.099H34.5201C34.2642 10.0951 34.0201 9.99072 33.8405 9.80838C33.661 9.62604 33.5603 9.3804 33.5603 9.12448C33.5603 8.86857 33.661 8.62292 33.8405 8.44058C34.0201 8.25825 34.2642 8.15385 34.5201 8.14993Z" fill="#123B84"/>
<path d="M63.1167 66.8782L59.6327 54.5381C59.0704 52.5726 57.9711 50.8028 56.4583 49.4277C54.9455 48.0527 53.0792 47.1267 51.069 46.754L47.914 46.1815C47.914 46.1815 36.8032 55.2597 34.2827 57.3276C34.1027 57.4912 33.9589 57.6906 33.8603 57.9129C33.7617 58.1352 33.7106 58.3756 33.7101 58.6188L33.5883 66.001L33.5518 68.4373H61.9473C62.1349 68.4329 62.319 68.3859 62.4858 68.3C62.6525 68.2141 62.7977 68.0915 62.9103 67.9414C63.0228 67.7914 63.0999 67.6177 63.1356 67.4335C63.1714 67.2493 63.1649 67.0595 63.1167 66.8782ZM52.3725 59.3742H50.3138V61.4208C50.3138 61.7439 50.1855 62.0537 49.957 62.2822C49.7286 62.5106 49.4187 62.639 49.0956 62.639C48.7726 62.639 48.4627 62.5106 48.2343 62.2822C48.0058 62.0537 47.8774 61.7439 47.8774 61.4208V59.3742H45.8188C45.4957 59.3742 45.1858 59.2459 44.9574 59.0174C44.7289 58.789 44.6006 58.4791 44.6006 58.156C44.6006 57.833 44.7289 57.5231 44.9574 57.2947C45.1858 57.0662 45.4957 56.9379 45.8188 56.9379H47.8775V54.8792C47.8775 54.5561 48.0058 54.2463 48.2343 54.0178C48.4627 53.7893 48.7726 53.661 49.0956 53.661C49.4187 53.661 49.7286 53.7893 49.957 54.0178C50.1855 54.2463 50.3138 54.5561 50.3138 54.8792V56.9379H52.3725C52.6925 56.9426 52.9978 57.073 53.2224 57.3009C53.447 57.5289 53.5729 57.836 53.5729 58.1561C53.5729 58.4761 53.447 58.7832 53.2224 59.0112C52.9978 59.2391 52.6925 59.3695 52.3725 59.3742Z" fill="#123B84"/>
<path d="M43.5042 46.6688L43.3946 45.3653C42.155 45.6732 40.8918 45.877 39.6183 45.9744C36.2682 46.1738 32.9062 45.9693 29.605 45.3653L29.605 46.2789L36.2928 52.5526C36.2928 52.5526 43.3256 46.7879 43.5042 46.6688Z" fill="#123B84"/>
<path d="M25.804 46.0475L21.9302 46.7541C19.9145 47.1131 18.0412 48.0342 16.5261 49.4114C15.011 50.7886 13.9158 52.5657 13.3666 54.5382L9.8826 66.8782C9.83431 67.0595 9.82779 67.2494 9.86352 67.4336C9.89925 67.6178 9.9763 67.7915 10.0889 67.9416C10.2015 68.0917 10.3466 68.2143 10.5134 68.3002C10.6803 68.3861 10.8644 68.433 11.052 68.4374H31.1153C31.1348 66.8446 31.2466 60.3256 31.2736 58.6068C31.2746 58.0094 31.4046 57.4193 31.6548 56.8769C31.905 56.3345 32.2695 55.8525 32.7232 55.464L34.3921 54.0997L25.804 46.0475Z" fill="#123B84"/>
</svg>
