<svg width="50" height="50" viewBox="0 0 50 50" fill="none" xmlns="http://www.w3.org/2000/svg">
<g clip-path="url(#clip0_8023_638)">
<path d="M22.142 25.7864L26.798 21.1304C25.751 20.462 24.5094 20.0729 23.1777 20.0729C19.4561 20.0729 16.4284 23.1006 16.4284 26.8222C16.4284 30.5438 19.4561 33.5715 23.1777 33.5715C26.8993 33.5715 29.927 30.5438 29.927 26.8222C29.927 25.4906 29.5379 24.2489 28.8695 23.2019L24.2135 27.8579L22.142 25.7864Z" fill="#123B84"/>
<path d="M46.3557 26.8222C46.3557 22.8415 45.3388 18.9487 43.4081 15.5037L37.6368 16.2945C39.7951 19.2507 41.0711 22.8899 41.0711 26.8222C41.0711 36.6886 33.0442 44.7155 23.1777 44.7155C13.3112 44.7155 5.28447 36.6886 5.28447 26.8222C5.28447 16.9558 13.3114 8.9289 23.1778 8.9289C27.1101 8.9289 30.7493 10.2049 33.7055 12.3632L34.4963 6.59189C31.0513 4.66123 27.1585 3.64433 23.1778 3.64433C16.9868 3.64433 11.1663 6.05527 6.78867 10.433C2.41094 14.8106 0 20.6312 0 26.8222C0 33.0132 2.41094 38.8337 6.78867 43.2113C11.1663 47.5892 16.9867 50 23.1778 50C29.3689 50 35.1894 47.5891 39.567 43.2113C43.9447 38.8337 46.3557 33.0133 46.3557 26.8222Z" fill="#123B84"/>
<path d="M23.1778 11.8586C14.9269 11.8586 8.21417 18.5712 8.21417 26.8223C8.21417 35.0733 14.9268 41.7859 23.1778 41.7859C31.4289 41.7859 38.1415 35.0733 38.1415 26.8223C38.1415 23.2231 36.864 19.917 34.739 17.3327L30.976 21.0957C32.1576 22.7004 32.8569 24.6811 32.8569 26.8223C32.8569 32.1593 28.515 36.5013 23.1779 36.5013C17.8409 36.5013 13.4989 32.1593 13.4989 26.8223C13.4989 21.4853 17.8409 17.1433 23.1779 17.1433C25.3192 17.1433 27.2997 17.8426 28.9045 19.0242L32.6675 15.2612C30.0831 13.136 26.777 11.8586 23.1778 11.8586Z" fill="#123B84"/>
<path d="M43.9753 0L37.4644 6.51084L36.5077 13.4923L43.4891 12.5355L50 6.02471L45.6052 4.39473L43.9753 0Z" fill="#123B84"/>
</g>
<defs>
<clipPath id="clip0_8023_638">
<rect width="50" height="50" fill="white"/>
</clipPath>
</defs>
</svg>
