<svg width="64" height="64" viewBox="0 0 64 64" fill="none" xmlns="http://www.w3.org/2000/svg">
<path d="M16.0019 10.7498H38.0015C39.037 10.7498 39.8765 9.91033 39.8765 8.87484V1.87497C39.8765 0.839485 39.037 0 38.0015 0H16.0019C14.9664 0 14.127 0.839485 14.127 1.87497V8.87484C14.127 9.91033 14.9664 10.7498 16.0019 10.7498Z" fill="#123B84"/>
<path d="M40.4604 55.4691C38.5169 57.4185 38.5194 60.5878 40.466 62.5344C42.4201 64.4885 45.5826 64.4885 47.5367 62.5344L50.1706 59.8589L43.0997 52.7881L40.4604 55.4691Z" fill="#123B84"/>
<path d="M55.4117 47.4637C53.4621 45.5138 50.2908 45.5136 48.3409 47.4637L45.7305 50.1156L52.8013 57.1865L55.417 54.5293C57.3606 52.5798 57.3583 49.4103 55.4117 47.4637Z" fill="#123B84"/>
<path d="M46.8763 27.0983C46.8763 24.8109 45.6054 22.7547 43.5596 21.7319L38.1202 19.0119C37.3529 18.6284 36.8764 17.8573 36.8764 16.9996V14.4996H17.1268V16.9996C17.1268 17.8572 16.6503 18.6283 15.8829 19.012L10.4436 21.7317C8.39781 22.7547 7.12695 24.8109 7.12695 27.0983V28.1245H46.8763V27.0983Z" fill="#123B84"/>
<path d="M45.689 44.8122C46.0585 44.4427 46.4566 44.1126 46.8763 43.8194V31.8744H7.12695V50.1241H40.4599L45.689 44.8122ZM31.0015 42.8742H28.8766V44.9992C28.8766 46.0347 28.0371 46.8742 27.0016 46.8742C25.9661 46.8742 25.1266 46.0347 25.1266 44.9992V42.8742H23.0017C21.9662 42.8742 21.1267 42.0348 21.1267 40.9993C21.1267 39.9638 21.9662 39.1243 23.0017 39.1243H25.1266V36.9993C25.1266 35.9639 25.9661 35.1244 27.0016 35.1244C28.0371 35.1244 28.8766 35.9639 28.8766 36.9993V39.1243H31.0015C32.037 39.1243 32.8765 39.9638 32.8765 40.9993C32.8765 42.0348 32.0371 42.8742 31.0015 42.8742Z" fill="#123B84"/>
<path d="M7.12695 53.8741V58.124C7.12695 61.3634 9.76241 63.9989 13.0018 63.9989H36.8233C34.7091 60.9652 34.7363 56.879 36.9097 53.8741H7.12695Z" fill="#123B84"/>
</svg>
