<svg width="54" height="54" viewBox="0 0 54 54" fill="none" xmlns="http://www.w3.org/2000/svg">
<path d="M40.0022 34.7541C40.0022 33.5348 39.5276 32.3884 38.6659 31.5257L38.2029 31.0627H35.9912C33.0718 31.0627 30.2938 30.3149 27.8353 28.8805L27.2341 29.331C23.5081 32.1266 18.1886 31.8132 14.8268 28.4492L13.52 27.1425C11.5246 25.1427 11.7098 21.8766 13.8712 20.1109L20.4567 14.7225C20.0812 14.6476 19.6952 14.6096 19.3039 14.6096H11.0711C9.4943 14.6096 8.01141 15.2235 6.8966 16.3383C6.3798 16.8561 5.69215 17.1409 4.9602 17.1409H1.58203C0.70875 17.1409 0 17.8496 0 18.7229V38.1292C0 39.0024 0.70875 39.7112 1.58203 39.7112H7.80996L19.5898 50.7981C21.3971 52.4977 24.1901 52.4594 25.9464 50.701C26.8044 49.8573 27.2564 48.835 27.3343 47.7426C29.5985 47.5774 31.3922 45.7779 31.5531 43.5239C33.8173 43.3586 35.611 41.5591 35.7718 39.3051C38.1437 39.132 40.0022 37.1645 40.0022 34.7541Z" fill="#123B84"/>
<path d="M23.625 10.1798C24.4987 10.1798 25.207 9.47151 25.207 8.59781V3.53531C25.207 2.66161 24.4987 1.95328 23.625 1.95328C22.7513 1.95328 22.043 2.66161 22.043 3.53531V8.59781C22.043 9.47151 22.7513 10.1798 23.625 10.1798Z" fill="#123B84"/>
<path d="M15.7565 10.5603C16.0654 10.8692 16.4703 11.0237 16.8751 11.0237C17.2798 11.0237 17.6848 10.8692 17.9937 10.5603C18.6115 9.94253 18.6115 8.94079 17.9937 8.32296L15.4624 5.79171C14.8447 5.17397 13.8429 5.17397 13.2251 5.79171C12.6073 6.40944 12.6073 7.41118 13.2251 8.02901L15.7565 10.5603Z" fill="#123B84"/>
<path d="M30.3751 11.0236C30.7799 11.0236 31.1848 10.8691 31.4937 10.5602L34.0249 8.02891C34.6427 7.41118 34.6427 6.40943 34.0249 5.7916C33.4072 5.17387 32.4054 5.17387 31.7876 5.7916L29.2563 8.32285C28.6385 8.94058 28.6385 9.94232 29.2563 10.5602C29.5653 10.8691 29.9702 11.0236 30.3751 11.0236Z" fill="#123B84"/>
<path d="M52.418 17.1408H44.2969C43.277 17.1408 42.2656 16.8033 41.4492 16.1916C40.0887 15.1717 38.4033 14.6095 36.7032 14.6095H28.4154C26.6366 14.6095 24.8494 15.2169 23.4067 16.3972L15.8731 22.5608C15.151 23.1509 15.0937 24.2399 15.756 24.9044L17.0649 26.2121C19.2765 28.4249 22.833 28.6769 25.3357 26.7996L27.7531 24.9866C30.0787 26.8735 32.9558 27.8986 35.9912 27.8986H39.5128L40.9029 29.2887C44.8178 33.2094 43.4525 39.8167 38.3717 41.9038C38.0964 42.5767 37.7251 43.2105 37.2664 43.7843C39.1289 43.4753 40.8924 42.6737 42.3563 41.4533C43.7052 40.3302 45.4149 39.711 47.1699 39.711H52.418C53.2913 39.711 54 39.0022 54 38.129C54 35.7129 54 20.8172 54 18.7227C54 17.8495 53.2913 17.1408 52.418 17.1408Z" fill="#123B84"/>
</svg>
