<svg width="50" height="50" viewBox="0 0 50 50" fill="none" xmlns="http://www.w3.org/2000/svg">
<path d="M1.12769 11.2577L2.0521 8.48153L8.2614 10.5491L7.33699 13.3253L1.12769 11.2577Z" fill="#00FFC3"/>
<path d="M13.323 7.33928L10.9109 0L8.13306 0.92592L10.5451 8.2652L13.323 7.33928Z" fill="#00FFC3"/>
<path d="M1.14453 38.7685L7.35383 36.6944L8.28117 39.4705L2.07187 41.5447L1.14453 38.7685Z" fill="#00FFC3"/>
<path d="M13.3229 42.6736L10.5451 41.7477L8.14453 49.0455L10.9223 49.9714L13.3229 42.6736Z" fill="#00FFC3"/>
<path d="M36.6771 7.3393L39.4549 8.26522L41.844 0.994524L39.0663 0.0686035L36.6771 7.3393Z" fill="#00FFC3"/>
<path d="M41.7634 10.5391L47.9727 8.46499L48.9001 11.2412L42.6908 13.3153L41.7634 10.5391Z" fill="#00FFC3"/>
<path d="M41.8641 49.0741L39.4549 41.7477L36.6771 42.6736L39.0863 50L41.8641 49.0741Z" fill="#00FFC3"/>
<path d="M41.743 39.4366L42.6675 36.6604L48.8768 38.728L47.9523 41.5042L41.743 39.4366Z" fill="#00FFC3"/>
<path d="M20.6104 5.98474C17.3839 5.98474 14.7575 8.60965 14.7575 11.8376C11.8651 11.8376 9.47125 13.9522 9.00332 16.7147C9.24387 18.0875 10.3894 19.1536 11.8311 19.1536C13.4458 19.1536 14.7575 17.8378 14.7575 16.2272L17.684 16.2262C17.684 19.4542 15.0576 22.0801 11.8311 22.0801C10.2123 22.0801 8.74559 21.4183 7.68477 20.3521C6.6136 21.6451 5.97827 23.2785 5.97827 25.0065C5.97827 26.7344 6.6136 28.3679 7.68477 29.6609C8.74559 28.5947 10.2123 27.9329 11.8311 27.9329C15.0576 27.9329 17.684 30.5578 17.684 33.7858H14.7575C14.7575 32.1725 13.4458 30.8593 11.8311 30.8593C10.3894 30.8593 9.24387 31.9255 9.00332 33.2983C9.47125 36.0608 11.8651 38.1754 14.7575 38.1754C14.7575 41.4033 17.3839 44.0282 20.6104 44.0282C21.6829 44.0282 22.6713 43.7116 23.5368 43.2055V36.7122H26.4632V43.2055C27.3288 43.7115 28.3171 44.0282 29.3897 44.0282C32.6161 44.0282 35.2425 41.4033 35.2425 38.1754C38.135 38.1754 40.5288 36.0608 40.9967 33.2983C40.7562 31.9255 39.6107 30.8593 38.1689 30.8593C36.5542 30.8593 35.2425 32.1725 35.2425 33.7858H32.3161C32.3161 30.5578 34.9424 27.9329 38.1689 27.9329C39.7877 27.9329 41.2545 28.5947 42.3153 29.6609C43.3864 28.3679 44.0218 26.7344 44.0218 25.0065C44.0218 23.2785 43.3864 21.6451 42.3153 20.3521C41.2545 21.4183 39.7877 22.0801 38.1689 22.0801C34.9424 22.0801 32.3161 19.4552 32.3161 16.2272H35.2425C35.2425 17.8405 36.5542 19.1536 38.1689 19.1536C39.6107 19.1536 40.7562 18.0875 40.9967 16.7147C40.5288 13.9522 38.135 11.8376 35.2425 11.8376C35.2425 8.60965 32.6161 5.98474 29.3897 5.98474C28.3171 5.98474 27.3288 6.30138 26.4632 6.80746V13.3008H23.5368V6.80736C22.6712 6.30138 21.6829 5.98474 20.6104 5.98474ZM26.4632 19.1536V30.8593H23.5368V19.1536H26.4632Z" fill="#00FFC3"/>
</svg>
