<svg width="26" height="26" viewBox="0 0 26 26" fill="none" xmlns="http://www.w3.org/2000/svg">
<g clip-path="url(#clip0_8047_1901)">
<path d="M19.7669 17.1995C18.9175 16.3609 17.857 16.3609 17.013 17.1995C16.3692 17.838 15.7253 18.4764 15.0923 19.1256C14.9192 19.3042 14.7731 19.342 14.5621 19.223C14.1455 18.9958 13.7019 18.8118 13.3015 18.5629C11.4349 17.3889 9.87134 15.8794 8.48629 14.1806C7.79918 13.3365 7.18781 12.433 6.76039 11.4159C6.67382 11.2103 6.69005 11.075 6.85777 10.9073C7.50161 10.2851 8.12921 9.64668 8.76222 9.00826C9.64411 8.12096 9.64411 7.08217 8.75681 6.18946C8.25365 5.68089 7.75048 5.18314 7.24732 4.67456C6.72793 4.15517 6.21394 3.63036 5.68914 3.11638C4.83971 2.2886 3.77928 2.2886 2.93527 3.12179C2.28603 3.76021 1.66383 4.41486 1.00377 5.04247C0.392401 5.62137 0.0840106 6.33013 0.0190864 7.15792C-0.0837104 8.50509 0.246321 9.77653 0.711612 11.0155C1.66383 13.58 3.11381 15.8578 4.87217 17.9462C7.24732 20.7704 10.0823 23.0048 13.3989 24.6171C14.8922 25.3421 16.4395 25.8994 18.1221 25.9914C19.2799 26.0563 20.2863 25.7641 21.0924 24.8606C21.6443 24.2438 22.2665 23.6811 22.8508 23.0914C23.7164 22.2149 23.7218 21.1545 22.8616 20.2888C21.8336 19.2555 20.8003 18.2275 19.7669 17.1995Z" fill="#123B84"/>
<path d="M18.7335 12.8875L20.7299 12.5466C20.4161 10.7125 19.5504 9.05152 18.2357 7.7314C16.8453 6.34093 15.0869 5.46446 13.15 5.19394L12.8687 7.20118C14.3673 7.41218 15.7307 8.08848 16.8074 9.16514C17.8245 10.1823 18.49 11.47 18.7335 12.8875Z" fill="#123B84"/>
<path d="M21.8553 4.20926C19.5505 1.90445 16.6343 0.449059 13.4151 0L13.1338 2.00724C15.9147 2.39679 18.4359 3.6574 20.4269 5.643C22.3152 7.53121 23.5541 9.91718 24.0032 12.5412L25.9996 12.2004C25.4748 9.15973 24.0411 6.40045 21.8553 4.20926Z" fill="#123B84"/>
</g>
<defs>
<clipPath id="clip0_8047_1901">
<rect width="26" height="26" fill="white"/>
</clipPath>
</defs>
</svg>
