<svg width="54" height="54" viewBox="0 0 54 54" fill="none" xmlns="http://www.w3.org/2000/svg">
<g clip-path="url(#clip0_8047_1917)">
<path d="M21.9375 9.28125C23.5685 9.28125 24.8906 7.95909 24.8906 6.32812C24.8906 4.69716 23.5685 3.375 21.9375 3.375C20.3065 3.375 18.9844 4.69716 18.9844 6.32812C18.9844 7.95909 20.3065 9.28125 21.9375 9.28125Z" fill="#123B84"/>
<path d="M10.125 9.28125C11.756 9.28125 13.0781 7.95909 13.0781 6.32812C13.0781 4.69716 11.756 3.375 10.125 3.375C8.49403 3.375 7.17188 4.69716 7.17188 6.32812C7.17188 7.95909 8.49403 9.28125 10.125 9.28125Z" fill="#123B84"/>
<path d="M21.9375 16.875C23.5685 16.875 24.8906 15.5528 24.8906 13.9219C24.8906 12.2909 23.5685 10.9688 21.9375 10.9688C20.3065 10.9688 18.9844 12.2909 18.9844 13.9219C18.9844 15.5528 20.3065 16.875 21.9375 16.875Z" fill="#123B84"/>
<path d="M10.125 16.875C11.756 16.875 13.0781 15.5528 13.0781 13.9219C13.0781 12.2909 11.756 10.9688 10.125 10.9688C8.49403 10.9688 7.17188 12.2909 7.17188 13.9219C7.17188 15.5528 8.49403 16.875 10.125 16.875Z" fill="#123B84"/>
<path d="M10.125 18.5625C9.34207 18.5634 8.59149 18.8749 8.03787 19.4285C7.48426 19.9821 7.17282 20.7327 7.17188 21.5156H12.2344C12.5167 21.5164 12.7981 21.5488 13.0732 21.6121C13.0743 21.5798 13.0781 21.5482 13.0781 21.5156C13.0772 20.7327 12.7657 19.9821 12.2121 19.4285C11.6585 18.8749 10.9079 18.5634 10.125 18.5625Z" fill="#123B84"/>
<path d="M18.9954 21.7331C19.3888 21.5947 24.8906 21.5156 24.8906 21.5156C24.8906 20.7324 24.5795 19.9813 24.0257 19.4274C23.4719 18.8736 22.7207 18.5625 21.9375 18.5625C21.1543 18.5625 20.4031 18.8736 19.8493 19.4274C19.2955 19.9813 18.9844 20.7324 18.9844 21.5156C18.9844 21.589 18.9901 21.661 18.9954 21.7331Z" fill="#123B84"/>
<path d="M0.849737 40.0781H31.2126C31.3239 40.0789 31.4343 40.0577 31.5373 40.0156C31.6404 39.9736 31.7341 39.9115 31.8131 39.8331C31.8921 39.7547 31.9547 39.6614 31.9975 39.5586C32.0403 39.4559 32.0623 39.3457 32.0623 39.2344C32.0623 39.1231 32.0403 39.0129 31.9975 38.9101C31.9547 38.8073 31.8921 38.7141 31.8131 38.6356C31.7341 38.5572 31.6404 38.4952 31.5373 38.4531C31.4343 38.4111 31.3239 38.3898 31.2126 38.3906H0.849737C0.738432 38.3898 0.628072 38.4111 0.525012 38.4531C0.421953 38.4952 0.328232 38.5572 0.249248 38.6356C0.170264 38.7141 0.107578 38.8073 0.0648003 38.9101C0.022023 39.0129 0 39.1231 0 39.2344C0 39.3457 0.022023 39.4559 0.0648003 39.5586C0.107578 39.6614 0.170264 39.7547 0.249248 39.8331C0.328232 39.9115 0.421953 39.9736 0.525012 40.0156C0.628072 40.0577 0.738432 40.0789 0.849737 40.0781Z" fill="#123B84"/>
<path d="M32.4511 48.9375C32.4511 48.7137 32.3622 48.4991 32.2039 48.3409C32.0457 48.1827 31.8311 48.0938 31.6073 48.0938H0.877197C0.653421 48.0938 0.43881 48.1826 0.280576 48.3409C0.122342 48.4991 0.0334473 48.7137 0.0334473 48.9375C0.0334473 49.1613 0.122342 49.3759 0.280576 49.5341C0.43881 49.6924 0.653421 49.7812 0.877197 49.7812H1.78769V52.7344C1.78769 52.9582 1.87658 53.1728 2.03482 53.331C2.19305 53.4892 2.40766 53.5781 2.63144 53.5781C2.85521 53.5781 3.06983 53.4892 3.22806 53.331C3.38629 53.1728 3.47519 52.9582 3.47519 52.7344V49.7812H29.0093V52.7344C29.0093 52.9582 29.0982 53.1728 29.2565 53.331C29.4147 53.4892 29.6293 53.5781 29.8531 53.5781C30.0769 53.5781 30.2915 53.4892 30.4497 53.331C30.6079 53.1728 30.6968 52.9582 30.6968 52.7344V49.7812H31.6073C31.8311 49.7812 32.0457 49.6923 32.2039 49.5341C32.3622 49.3759 32.4511 49.1613 32.4511 48.9375Z" fill="#123B84"/>
<path d="M5.48438 2.53125C5.48467 2.30756 5.57365 2.09312 5.73183 1.93495C5.89 1.77678 6.10444 1.68779 6.32812 1.6875H25.7344C25.9581 1.68779 26.1725 1.77678 26.3307 1.93495C26.4888 2.09312 26.5778 2.30756 26.5781 2.53125V19.197C26.6611 19.1339 26.7435 19.0702 26.8294 19.0103L28.2656 18.0098V2.53125C28.2649 1.86015 27.998 1.21674 27.5234 0.742195C27.0489 0.267652 26.4055 0.00073254 25.7344 0L6.32812 0C5.65702 0.00073254 5.01361 0.267652 4.53907 0.742195C4.06453 1.21674 3.79761 1.86015 3.79688 2.53125V22.4904C4.27556 22.0592 4.8564 21.7574 5.48438 21.6134V2.53125Z" fill="#123B84"/>
<path d="M27.4219 29.1094C27.6456 29.1094 27.8603 29.0205 28.0185 28.8622C28.1767 28.704 28.2656 28.4894 28.2656 28.2656V25.3125C28.265 24.7533 28.0425 24.2171 27.6471 23.8217C27.2516 23.4262 26.7155 23.2038 26.1562 23.2031H20.25C19.6908 23.2038 19.1546 23.4262 18.7592 23.8217C18.3637 24.2171 18.1413 24.7533 18.1406 25.3125V28.2656C18.1406 28.4894 18.2295 28.704 18.3878 28.8622C18.546 29.0205 18.7606 29.1094 18.9844 29.1094H19.2946V29.7541C19.2941 30.0429 19.2254 30.3274 19.0941 30.5846C18.9628 30.8417 18.7726 31.0643 18.539 31.234C18.0897 31.5604 17.7238 31.9884 17.4713 32.483C17.2188 32.9777 17.0867 33.525 17.0859 34.0804V36.7031H29.3203V34.0804C29.3195 33.5249 29.1874 32.9775 28.9348 32.4828C28.6822 31.9881 28.3163 31.56 27.8668 31.2336C27.6333 31.064 27.4431 30.8415 27.3119 30.5844C27.1806 30.3273 27.112 30.0428 27.1117 29.7542V29.1094H27.4219ZM26.5781 27.4219H19.8281V25.3125C19.8282 25.2006 19.8727 25.0934 19.9518 25.0143C20.0309 24.9352 20.1381 24.8907 20.25 24.8906H26.1562C26.2681 24.8907 26.3754 24.9352 26.4545 25.0143C26.5336 25.0934 26.578 25.2006 26.5781 25.3125V27.4219Z" fill="#123B84"/>
<path d="M29.3204 41.7656H17.086V43.875C17.0866 44.1626 17.1366 44.448 17.2337 44.7188H15.2509C15.348 44.448 15.3979 44.1626 15.3985 43.875V41.7656H3.16414V43.875C3.16474 44.1626 3.21468 44.448 3.3118 44.7188H0.877197C0.653421 44.7188 0.43881 44.8076 0.280576 44.9659C0.122342 45.1241 0.0334473 45.3387 0.0334473 45.5625C0.0334473 45.7863 0.122342 46.0009 0.280576 46.1591C0.43881 46.3174 0.653421 46.4062 0.877197 46.4062H31.6073C31.8311 46.4062 32.0457 46.3174 32.204 46.1591C32.3622 46.0009 32.4511 45.7863 32.4511 45.5625C32.4511 45.3387 32.3622 45.1241 32.204 44.9659C32.0457 44.8076 31.8311 44.7188 31.6073 44.7188H29.1727C29.2698 44.448 29.3198 44.1626 29.3204 43.875V41.7656Z" fill="#123B84"/>
<path d="M15.3984 34.0804C15.3976 33.5249 15.2655 32.9775 15.0129 32.4828C14.7603 31.9881 14.3944 31.56 13.9449 31.2336C13.7114 31.064 13.5212 30.8415 13.39 30.5844C13.2588 30.3273 13.1902 30.0428 13.1898 29.7542V29.1094H13.5C13.7238 29.1094 13.9384 29.0205 14.0966 28.8622C14.2548 28.704 14.3437 28.4894 14.3438 28.2656V25.3125C14.3431 24.7533 14.1206 24.2171 13.7252 23.8217C13.3298 23.4262 12.7936 23.2038 12.2344 23.2031H6.32812C5.76889 23.2038 5.23274 23.4262 4.8373 23.8217C4.44186 24.2171 4.21941 24.7533 4.21875 25.3125V28.2656C4.21876 28.4894 4.30766 28.704 4.46589 28.8622C4.62412 29.0205 4.83873 29.1094 5.0625 29.1094H5.37273V29.7541C5.37222 30.0429 5.30353 30.3274 5.17222 30.5846C5.04092 30.8417 4.85073 31.0643 4.61715 31.234C4.1678 31.5604 3.80195 31.9884 3.54943 32.483C3.29691 32.9777 3.16486 33.525 3.16406 34.0804V36.7031H15.3984V34.0804ZM12.6562 27.4219H5.90625V25.3125C5.90633 25.2006 5.9508 25.0934 6.0299 25.0143C6.109 24.9352 6.21626 24.8907 6.32812 24.8906H12.2344C12.3462 24.8907 12.4535 24.9352 12.5326 25.0143C12.6117 25.0934 12.6562 25.2006 12.6562 25.3125V27.4219Z" fill="#123B84"/>
<path d="M51.5185 20.3946L47.9342 17.8988C47.1469 17.3481 46.579 16.5374 46.3304 15.6094H46.828C47.0518 15.6094 47.2664 15.5205 47.4246 15.3622C47.5829 15.204 47.6718 14.9894 47.6718 14.7656V7.17188C47.671 6.50077 47.4041 5.85736 46.9296 5.38282C46.455 4.90828 45.8116 4.64136 45.1405 4.64062H34.1718C33.5007 4.64136 32.8573 4.90828 32.3827 5.38282C31.9082 5.85736 31.6413 6.50077 31.6405 7.17188V14.7656C31.6405 14.9894 31.7294 15.204 31.8877 15.3622C32.0459 15.5205 32.2605 15.6094 32.4843 15.6094H32.9819C32.7333 16.5374 32.1654 17.3481 31.3781 17.8988L27.7934 20.3946C27.3369 20.7163 26.9296 21.1026 26.5842 21.5414C26.7281 21.5582 26.8709 21.5832 27.0119 21.6164C27.0416 21.6233 27.0706 21.6316 27.1 21.6392C27.2107 21.6677 27.3192 21.7008 27.4257 21.7385C27.4606 21.7509 27.4952 21.7633 27.5296 21.7766C27.634 21.8173 27.7359 21.8625 27.8353 21.9122C27.8635 21.9261 27.8924 21.9385 27.9201 21.9531C28.0459 22.0188 28.168 22.0915 28.2856 22.1709C28.433 22.0289 28.5909 21.8981 28.7579 21.7797L32.3421 19.2839C33.5813 18.4163 34.4302 17.0967 34.7061 15.6094H44.6062C44.8821 17.0967 45.731 18.4163 46.9702 19.2839L50.554 21.7797C51.0967 22.1577 51.54 22.6613 51.8461 23.2474C52.1523 23.8336 52.3122 24.4851 52.3124 25.1465V25.9453H29.953V28.2656C29.9532 28.61 29.883 28.9508 29.7466 29.267C29.6102 29.5832 29.4106 29.8681 29.1599 30.1043C29.7379 30.5934 30.2025 31.2024 30.5216 31.8889C30.8406 32.5755 31.0065 33.3233 31.0077 34.0804V36.7031H31.2125C31.8838 36.7031 32.5276 36.9698 33.0023 37.4445C33.477 37.9192 33.7437 38.563 33.7437 39.2344C33.7437 39.9057 33.477 40.5495 33.0023 41.0242C32.5276 41.4989 31.8838 41.7656 31.2125 41.7656H31.0077V43.0312H31.6072C32.0961 43.0304 32.5749 43.1715 32.9853 43.4373C33.3957 43.7032 33.7202 44.0824 33.9193 44.529C34.1185 44.9756 34.1838 45.4704 34.1073 45.9534C34.0308 46.4364 33.8159 46.8868 33.4885 47.25C33.771 47.5634 33.9706 47.9425 34.0689 48.3529C34.1672 48.7632 34.1612 49.1916 34.0513 49.599C33.9415 50.0064 33.7314 50.3797 33.4402 50.6851C33.149 50.9904 32.7859 51.2179 32.3842 51.3468V52.7344C32.384 53.1791 32.2658 53.6159 32.0417 54H51.0468C51.8297 53.9991 52.5803 53.6876 53.1339 53.134C53.6875 52.5804 53.999 51.8298 53.9999 51.0469V25.1465C53.9996 24.2131 53.7739 23.2936 53.3418 22.4663C52.9098 21.6389 52.2843 20.9282 51.5185 20.3946ZM52.3124 37.125H42.1874C41.9636 37.125 41.749 37.2139 41.5908 37.3721C41.4325 37.5304 41.3436 37.745 41.3436 37.9688C41.3436 38.1925 41.4325 38.4071 41.5908 38.5654C41.749 38.7236 41.9636 38.8125 42.1874 38.8125H52.3124V41.3438H42.1874C41.9636 41.3438 41.749 41.4326 41.5908 41.5909C41.4325 41.7491 41.3436 41.9637 41.3436 42.1875C41.3436 42.4113 41.4325 42.6259 41.5908 42.7841C41.749 42.9424 41.9636 43.0312 42.1874 43.0312H52.3124V47.25H37.9686V32.9062H52.3124V37.125Z" fill="#123B84"/>
</g>
<defs>
<clipPath id="clip0_8047_1917">
<rect width="54" height="54" fill="white"/>
</clipPath>
</defs>
</svg>
