<svg width="22" height="21" viewBox="0 0 22 21" fill="none" xmlns="http://www.w3.org/2000/svg">
<g clip-path="url(#clip0_8168_594)">
<path d="M14.1518 3.86258L13.8686 3.38037H12.1551V7.72339L12.1493 11.9655C12.1522 11.9971 12.1551 12.0317 12.1551 12.0632C12.1551 13.1254 11.3553 13.9921 10.3686 13.9921C9.382 13.9921 8.58218 13.1285 8.58218 12.0632C8.58218 11.0011 9.382 10.1344 10.3686 10.1344C10.573 10.1344 10.7715 10.1754 10.9554 10.2447V8.1268C10.7656 8.09213 10.5701 8.07322 10.3686 8.07322C8.33406 8.07637 6.67603 9.86653 6.67603 12.0664C6.67603 14.2663 8.33406 16.0564 10.3716 16.0564C12.4091 16.0564 14.0671 14.2663 14.0671 12.0664V7.02056C14.8056 7.81794 15.7602 8.5964 16.8169 8.84538V6.68018C15.6697 6.13179 14.5283 4.51182 14.1518 3.86258Z" fill="#123B84"/>
</g>
<defs>
<clipPath id="clip0_8168_594">
<rect width="13.5211" height="12.6761" fill="white" transform="translate(4.14087 3.38037)"/>
</clipPath>
</defs>
</svg>
