<svg width="22" height="21" viewBox="0 0 22 21" fill="none" xmlns="http://www.w3.org/2000/svg">
<g clip-path="url(#clip0_8168_599)">
<path d="M18.7042 5.6661C18.1346 5.9065 17.5304 6.0643 16.9118 6.13425C17.5562 5.7663 18.0509 5.18364 18.2839 4.4894C17.6713 4.83572 17.0011 5.07972 16.3022 5.21087C15.7329 4.63307 14.9219 4.27197 14.0243 4.27197C12.3008 4.27197 10.9034 5.60316 10.9034 7.245C10.9034 7.47806 10.9311 7.70494 10.9842 7.92259C8.39059 7.79857 6.09108 6.61496 4.55183 4.8162C4.28325 5.2553 4.12936 5.76607 4.12936 6.31086C4.12936 7.34237 4.68035 8.25233 5.51768 8.78552C5.0221 8.77073 4.53742 8.64321 4.1041 8.41361C4.10393 8.42606 4.10393 8.43852 4.10393 8.45103C4.10393 9.89152 5.17965 11.0932 6.60725 11.3663C6.14769 11.4854 5.66565 11.5028 5.19795 11.4173C5.59505 12.5984 6.7476 13.458 8.11316 13.482C7.04511 14.2794 5.69945 14.7547 4.23738 14.7547C3.98544 14.7547 3.73707 14.7406 3.49292 14.7132C4.874 15.5567 6.51438 16.0489 8.27674 16.0489C14.017 16.0489 17.156 11.5186 17.156 7.5898C17.156 7.46085 17.153 7.33263 17.1469 7.20515C17.7579 6.78438 18.2852 6.26321 18.7042 5.6661Z" fill="#123B84"/>
</g>
<defs>
<clipPath id="clip0_8168_599">
<rect width="15.2113" height="11.831" fill="white" transform="translate(3.49292 4.22559)"/>
</clipPath>
</defs>
</svg>
