<svg width="58" height="58" viewBox="0 0 58 58" fill="none" xmlns="http://www.w3.org/2000/svg">
<path d="M45.3125 5.4375H52.4492C52.4641 5.43745 52.4789 5.44035 52.4926 5.44603C52.5064 5.4517 52.5189 5.46005 52.5294 5.47058C52.54 5.4811 52.5483 5.49361 52.554 5.50738C52.5597 5.52114 52.5626 5.53589 52.5625 5.55078V12.6875C52.5671 12.9248 52.6647 13.1508 52.8341 13.317C53.0036 13.4832 53.2314 13.5762 53.4688 13.5762C53.7061 13.5762 53.934 13.4831 54.1034 13.3169C54.2729 13.1507 54.3704 12.9247 54.375 12.6874V5.55078C54.3745 5.04019 54.1714 4.55067 53.8104 4.18963C53.4493 3.82859 52.9598 3.62553 52.4492 3.625H45.3125C45.0752 3.62963 44.8492 3.72714 44.683 3.89659C44.5168 4.06604 44.4238 4.29391 44.4238 4.53125C44.4238 4.76859 44.5168 4.99646 44.683 5.16591C44.8492 5.33536 45.0752 5.43287 45.3125 5.4375Z" fill="#123B84"/>
<path d="M53.4688 44.4063C53.3497 44.4062 53.2318 44.4296 53.1219 44.4751C53.0119 44.5206 52.9119 44.5874 52.8278 44.6715C52.7436 44.7557 52.6769 44.8556 52.6313 44.9656C52.5858 45.0756 52.5624 45.1935 52.5625 45.3125V52.4492C52.5625 52.4641 52.5596 52.4789 52.554 52.4926C52.5483 52.5064 52.54 52.5189 52.5294 52.5294C52.5189 52.54 52.5064 52.5483 52.4926 52.554C52.4789 52.5596 52.4641 52.5625 52.4492 52.5625H45.3125C45.0721 52.5625 44.8416 52.658 44.6717 52.8279C44.5017 52.9979 44.4062 53.2284 44.4062 53.4688C44.4062 53.7091 44.5017 53.9396 44.6717 54.1096C44.8416 54.2795 45.0721 54.375 45.3125 54.375H52.4492C52.9598 54.3745 53.4493 54.1714 53.8104 53.8104C54.1714 53.4493 54.3745 52.9598 54.375 52.4492V45.3125C54.3751 45.1935 54.3517 45.0756 54.3062 44.9656C54.2606 44.8556 54.1939 44.7557 54.1097 44.6715C54.0256 44.5874 53.9256 44.5206 53.8156 44.4751C53.7057 44.4296 53.5878 44.4062 53.4688 44.4063Z" fill="#123B84"/>
<path d="M12.6875 52.5625H5.55078C5.5359 52.5625 5.52117 52.5596 5.50742 52.5539C5.49367 52.5482 5.48118 52.5399 5.47066 52.5293C5.46014 52.5188 5.45179 52.5063 5.4461 52.4926C5.44041 52.4788 5.43749 52.4641 5.4375 52.4492V45.3125C5.43287 45.0752 5.33535 44.8492 5.16589 44.683C4.99643 44.5169 4.76856 44.4238 4.53122 44.4238C4.29388 44.4238 4.06601 44.5169 3.89657 44.6831C3.72712 44.8493 3.62962 45.0753 3.625 45.3126V52.4492C3.62553 52.9598 3.82859 53.4493 4.18963 53.8104C4.55067 54.1714 5.04019 54.3745 5.55078 54.375H12.6875C12.9248 54.3704 13.1508 54.2729 13.317 54.1034C13.4832 53.934 13.5763 53.7061 13.5763 53.4688C13.5763 53.2314 13.4832 53.0035 13.317 52.8341C13.1508 52.6646 12.9248 52.5671 12.6875 52.5625Z" fill="#123B84"/>
<path d="M4.53125 13.5938C4.65027 13.5938 4.76813 13.5704 4.87809 13.5248C4.98806 13.4793 5.08798 13.4125 5.17213 13.3284C5.25629 13.2442 5.32305 13.1443 5.36858 13.0343C5.41411 12.9244 5.43753 12.8065 5.4375 12.6875V5.55078C5.43749 5.5359 5.44041 5.52117 5.4461 5.50742C5.45179 5.49367 5.46014 5.48118 5.47066 5.47066C5.48118 5.46014 5.49367 5.45179 5.50742 5.4461C5.52117 5.44041 5.5359 5.43749 5.55078 5.4375H12.6875C12.9279 5.4375 13.1584 5.34202 13.3283 5.17207C13.4983 5.00211 13.5938 4.7716 13.5938 4.53125C13.5938 4.2909 13.4983 4.06039 13.3283 3.89043C13.1584 3.72048 12.9279 3.625 12.6875 3.625H5.55078C5.04019 3.62553 4.55067 3.82859 4.18963 4.18963C3.82859 4.55067 3.62553 5.04019 3.625 5.55078V12.6875C3.62497 12.8065 3.64839 12.9244 3.69392 13.0343C3.73945 13.1443 3.80621 13.2442 3.89037 13.3284C3.97452 13.4125 4.07444 13.4793 4.18441 13.5248C4.29437 13.5704 4.41223 13.5938 4.53125 13.5938Z" fill="#123B84"/>
<path d="M53.3872 31.6644C54.0273 30.9243 54.3796 29.9785 54.3796 29C54.3796 28.0215 54.0273 27.0757 53.3872 26.3356C50.4733 22.9308 46.8784 20.1741 42.8342 18.2433C38.7899 16.3125 34.386 15.2503 29.9063 15.1253C29.8902 16.2047 29.9178 18.8712 29.9063 19.9828C31.9844 20.1968 33.9254 21.1201 35.4027 22.5974C36.8799 24.0746 37.8032 26.0156 38.0172 28.0938H45.3125C45.5504 28.0974 45.7774 28.1945 45.9443 28.3641C46.1113 28.5336 46.2048 28.7621 46.2048 29C46.2048 29.2379 46.1113 29.4664 45.9443 29.6359C45.7774 29.8055 45.5504 29.9026 45.3125 29.9062H38.0172C37.8032 31.9844 36.8799 33.9254 35.4026 35.4026C33.9254 36.8799 31.9844 37.8032 29.9063 38.0172V42.8747C34.386 42.7496 38.7899 41.6875 42.8341 39.7567C46.8784 37.8259 50.4733 35.0692 53.3872 31.6644Z" fill="#123B84"/>
<path d="M28.0938 38.0172C26.0156 37.8032 24.0746 36.8799 22.5974 35.4026C21.1201 33.9254 20.1968 31.9844 19.9828 29.9062H12.6875C12.4496 29.9026 12.2227 29.8055 12.0557 29.6359C11.8888 29.4664 11.7952 29.2379 11.7952 29C11.7952 28.7621 11.8888 28.5336 12.0557 28.3641C12.2227 28.1945 12.4496 28.0974 12.6875 28.0938H19.9828C20.1968 26.0156 21.1201 24.0746 22.5973 22.5973C24.0746 21.1201 26.0156 20.1968 28.0938 19.9828V15.1253C23.6143 15.2519 19.2109 16.3147 15.1669 18.2454C11.1228 20.1761 7.52773 22.9319 4.61282 26.3356C3.97272 27.0757 3.62045 28.0215 3.62045 29C3.62045 29.9785 3.97272 30.9243 4.61282 31.6644C7.52673 35.0692 11.1216 37.8259 15.1659 39.7567C19.2101 41.6875 23.614 42.7496 28.0938 42.8747C28.1103 41.7966 28.0819 39.1279 28.0938 38.0172Z" fill="#123B84"/>
<path d="M32.8606 28.0938H36.1956C35.9884 26.4983 35.2591 25.0162 34.1214 23.8786C32.9838 22.7409 31.5017 22.0116 29.9062 21.8044V25.1394C30.6238 25.3103 31.2799 25.677 31.8014 26.1986C32.323 26.7201 32.6897 27.3762 32.8606 28.0938Z" fill="#123B84"/>
<path d="M29.9062 32.8606V36.1956C31.5017 35.9884 32.9838 35.2591 34.1214 34.1214C35.2591 32.9838 35.9884 31.5017 36.1956 29.9062H32.8606C32.6897 30.6238 32.323 31.2799 31.8014 31.8014C31.2799 32.323 30.6238 32.6897 29.9062 32.8606Z" fill="#123B84"/>
<path d="M25.1394 29.9062H21.8044C22.0116 31.5017 22.7409 32.9838 23.8786 34.1214C25.0162 35.2591 26.4983 35.9884 28.0938 36.1956V32.8606C27.3762 32.6897 26.7202 32.323 26.1986 31.8014C25.677 31.2799 25.3103 30.6238 25.1394 29.9062Z" fill="#123B84"/>
<path d="M28.0938 25.1394V21.8044C26.4983 22.0116 25.0162 22.7409 23.8786 23.8786C22.7409 25.0162 22.0116 26.4983 21.8044 28.0938H25.1394C25.3103 27.3762 25.677 26.7201 26.1986 26.1986C26.7202 25.677 27.3762 25.3103 28.0938 25.1394Z" fill="#123B84"/>
<path d="M31.1569 29C31.1503 28.4323 30.9201 27.8901 30.5164 27.491C30.1126 27.0918 29.5677 26.868 29 26.868C28.4322 26.868 27.8874 27.0919 27.4836 27.491C27.0798 27.8901 26.8497 28.4324 26.8431 29.0001C26.8497 29.5678 27.0799 30.11 27.4836 30.5091C27.8874 30.9082 28.4323 31.132 29 31.132C29.5678 31.132 30.1126 30.9082 30.5164 30.5091C30.9202 30.1099 31.1503 29.5677 31.1569 29Z" fill="#123B84"/>
<path d="M29.9062 15.1253V12.6875C29.9027 12.4495 29.8057 12.2224 29.6361 12.0553C29.4665 11.8882 29.2381 11.7946 29 11.7946C28.7619 11.7946 28.5335 11.8882 28.3639 12.0553C28.1943 12.2224 28.0973 12.4495 28.0938 12.6875V15.1253C28.6963 15.1118 29.3037 15.1118 29.9062 15.1253Z" fill="#123B84"/>
<path d="M28.0938 42.8747V45.3125C28.0973 45.5505 28.1943 45.7776 28.3639 45.9447C28.5335 46.1118 28.7619 46.2054 29 46.2054C29.2381 46.2054 29.4665 46.1118 29.6361 45.9447C29.8057 45.7776 29.9027 45.5505 29.9062 45.3125V42.8747C29.3037 42.8882 28.6963 42.8882 28.0938 42.8747Z" fill="#123B84"/>
</svg>
