<svg width="58" height="58" viewBox="0 0 58 58" fill="none" xmlns="http://www.w3.org/2000/svg">
<path d="M45.3125 5.4375H52.4492C52.4641 5.43745 52.4788 5.44035 52.4926 5.44603C52.5064 5.4517 52.5189 5.46005 52.5294 5.47058C52.5399 5.4811 52.5483 5.49361 52.5539 5.50738C52.5596 5.52114 52.5625 5.53589 52.5625 5.55078V12.6875C52.5671 12.9248 52.6646 13.1508 52.8341 13.317C53.0035 13.4832 53.2314 13.5762 53.4687 13.5762C53.7061 13.5762 53.9339 13.4831 54.1034 13.3169C54.2728 13.1507 54.3703 12.9247 54.375 12.6874V5.55078C54.3744 5.04019 54.1714 4.55067 53.8103 4.18963C53.4493 3.82859 52.9598 3.62553 52.4492 3.625H45.3125C45.0752 3.62963 44.8492 3.72714 44.683 3.89659C44.5168 4.06604 44.4237 4.29391 44.4237 4.53125C44.4237 4.76859 44.5168 4.99646 44.683 5.16591C44.8492 5.33536 45.0752 5.43287 45.3125 5.4375Z" fill="#00FFC3"/>
<path d="M53.4686 44.4063C53.3496 44.4062 53.2317 44.4296 53.1217 44.4751C53.0118 44.5206 52.9118 44.5874 52.8277 44.6715C52.7435 44.7557 52.6767 44.8556 52.6312 44.9656C52.5857 45.0756 52.5623 45.1935 52.5624 45.3125V52.4492C52.5624 52.4641 52.5595 52.4789 52.5538 52.4926C52.5482 52.5064 52.5398 52.5189 52.5293 52.5294C52.5188 52.54 52.5063 52.5483 52.4925 52.554C52.4787 52.5596 52.464 52.5625 52.4491 52.5625H45.3124C45.072 52.5625 44.8415 52.658 44.6716 52.8279C44.5016 52.9979 44.4061 53.2284 44.4061 53.4688C44.4061 53.7091 44.5016 53.9396 44.6716 54.1096C44.8415 54.2795 45.072 54.375 45.3124 54.375H52.4491C52.9597 54.3745 53.4492 54.1714 53.8102 53.8104C54.1713 53.4493 54.3743 52.9598 54.3749 52.4492V45.3125C54.3749 45.1935 54.3516 45.0756 54.306 44.9656C54.2605 44.8556 54.1938 44.7557 54.1096 44.6715C54.0254 44.5874 53.9255 44.5206 53.8155 44.4751C53.7055 44.4296 53.5877 44.4062 53.4686 44.4063Z" fill="#00FFC3"/>
<path d="M12.6875 52.5625H5.55078C5.5359 52.5625 5.52117 52.5596 5.50742 52.5539C5.49367 52.5482 5.48118 52.5399 5.47066 52.5293C5.46014 52.5188 5.45179 52.5063 5.4461 52.4926C5.44041 52.4788 5.43749 52.4641 5.4375 52.4492V45.3125C5.43287 45.0752 5.33535 44.8492 5.16589 44.683C4.99643 44.5168 4.76856 44.4238 4.53122 44.4238C4.29388 44.4238 4.06601 44.5169 3.89657 44.6831C3.72712 44.8492 3.62962 45.0753 3.625 45.3126V52.4492C3.62553 52.9598 3.82859 53.4493 4.18963 53.8104C4.55067 54.1714 5.04019 54.3745 5.55078 54.375H12.6875C12.9248 54.3704 13.1508 54.2729 13.317 54.1034C13.4832 53.9339 13.5763 53.7061 13.5763 53.4687C13.5763 53.2314 13.4832 53.0035 13.317 52.8341C13.1508 52.6646 12.9248 52.5671 12.6875 52.5625Z" fill="#00FFC3"/>
<path d="M4.53125 13.5938C4.65027 13.5938 4.76813 13.5704 4.87809 13.5248C4.98806 13.4793 5.08798 13.4125 5.17213 13.3284C5.25629 13.2442 5.32305 13.1443 5.36858 13.0343C5.41411 12.9244 5.43753 12.8065 5.4375 12.6875V5.55078C5.43749 5.5359 5.44041 5.52117 5.4461 5.50742C5.45179 5.49367 5.46014 5.48118 5.47066 5.47066C5.48118 5.46014 5.49367 5.45179 5.50742 5.4461C5.52117 5.44041 5.5359 5.43749 5.55078 5.4375H12.6875C12.9279 5.4375 13.1584 5.34202 13.3283 5.17207C13.4983 5.00211 13.5938 4.7716 13.5938 4.53125C13.5938 4.2909 13.4983 4.06039 13.3283 3.89043C13.1584 3.72048 12.9279 3.625 12.6875 3.625H5.55078C5.04019 3.62553 4.55067 3.82859 4.18963 4.18963C3.82859 4.55067 3.62553 5.04019 3.625 5.55078V12.6875C3.62497 12.8065 3.64839 12.9244 3.69392 13.0343C3.73945 13.1443 3.80621 13.2442 3.89037 13.3284C3.97452 13.4125 4.07444 13.4793 4.18441 13.5248C4.29437 13.5704 4.41223 13.5938 4.53125 13.5938Z" fill="#00FFC3"/>
<path d="M53.387 31.6644C54.0271 30.9243 54.3793 29.9785 54.3793 29C54.3793 28.0215 54.0271 27.0757 53.387 26.3356C50.4731 22.9307 46.8782 20.1741 42.8339 18.2433C38.7897 16.3125 34.3858 15.2503 29.906 15.1253C29.89 16.2047 29.9176 18.8712 29.906 19.9828C31.9842 20.1968 33.9252 21.1201 35.4024 22.5973C36.8797 24.0746 37.803 26.0156 38.017 28.0937H45.3123C45.5502 28.0974 45.7771 28.1945 45.9441 28.3641C46.111 28.5336 46.2046 28.762 46.2046 29C46.2046 29.2379 46.111 29.4663 45.9441 29.6359C45.7771 29.8055 45.5502 29.9026 45.3123 29.9062H38.017C37.803 31.9844 36.8797 33.9254 35.4024 35.4026C33.9252 36.8799 31.9842 37.8032 29.906 38.0172V42.8747C34.3858 42.7496 38.7897 41.6875 42.8339 39.7567C46.8782 37.8259 50.4731 35.0692 53.387 31.6644Z" fill="#00FFC3"/>
<path d="M28.0937 38.0172C26.0155 37.8032 24.0745 36.8799 22.5973 35.4026C21.12 33.9254 20.1967 31.9844 19.9827 29.9062H12.6874C12.4495 29.9026 12.2226 29.8055 12.0556 29.6359C11.8887 29.4663 11.7951 29.2379 11.7951 29C11.7951 28.762 11.8887 28.5336 12.0556 28.3641C12.2226 28.1945 12.4495 28.0974 12.6874 28.0937H19.9827C20.1967 26.0156 21.12 24.0746 22.5973 22.5973C24.0745 21.1201 26.0155 20.1968 28.0937 19.9828V15.1253C23.6142 15.2519 19.2108 16.3147 15.1668 18.2454C11.1227 20.1761 7.52764 22.9319 4.61273 26.3356C3.97263 27.0757 3.62036 28.0215 3.62036 29C3.62036 29.9785 3.97263 30.9243 4.61273 31.6644C7.52664 35.0692 11.1215 37.8259 15.1658 39.7567C19.21 41.6875 23.6139 42.7496 28.0937 42.8747C28.1102 41.7966 28.0818 39.1279 28.0937 38.0172Z" fill="#00FFC3"/>
<path d="M32.8606 28.0938H36.1956C35.9884 26.4983 35.2591 25.0162 34.1214 23.8786C32.9838 22.7409 31.5017 22.0116 29.9062 21.8044V25.1394C30.6238 25.3103 31.2799 25.677 31.8014 26.1986C32.323 26.7202 32.6897 27.3762 32.8606 28.0938Z" fill="#00FFC3"/>
<path d="M29.9062 32.8606V36.1956C31.5017 35.9884 32.9838 35.2591 34.1214 34.1214C35.2591 32.9838 35.9884 31.5017 36.1956 29.9062H32.8606C32.6897 30.6238 32.323 31.2799 31.8014 31.8014C31.2799 32.323 30.6238 32.6897 29.9062 32.8606Z" fill="#00FFC3"/>
<path d="M25.1392 29.9062H21.8042C22.0115 31.5017 22.7407 32.9838 23.8784 34.1214C25.016 35.2591 26.4981 35.9884 28.0936 36.1956V32.8606C27.376 32.6897 26.72 32.323 26.1984 31.8014C25.6768 31.2799 25.3101 30.6238 25.1392 29.9062Z" fill="#00FFC3"/>
<path d="M28.0936 25.1394V21.8044C26.4981 22.0116 25.016 22.7409 23.8784 23.8786C22.7407 25.0162 22.0114 26.4983 21.8042 28.0938H25.1392C25.3101 27.3762 25.6768 26.7202 26.1984 26.1986C26.72 25.677 27.376 25.3103 28.0936 25.1394Z" fill="#00FFC3"/>
<path d="M31.1568 29C31.1502 28.4323 30.92 27.8901 30.5162 27.491C30.1125 27.0919 29.5676 26.868 28.9999 26.868C28.4321 26.8681 27.8873 27.0919 27.4835 27.491C27.0797 27.8902 26.8496 28.4324 26.843 29.0001C26.8496 29.5678 27.0798 30.11 27.4835 30.5091C27.8873 30.9082 28.4322 31.1321 28.9999 31.1321C29.5677 31.1321 30.1125 30.9082 30.5163 30.5091C30.9201 30.11 31.1502 29.5677 31.1568 29Z" fill="#00FFC3"/>
<path d="M29.9062 15.1253V12.6875C29.9027 12.4495 29.8057 12.2224 29.6361 12.0553C29.4665 11.8883 29.2381 11.7946 29 11.7946C28.7619 11.7946 28.5335 11.8883 28.3639 12.0553C28.1943 12.2224 28.0973 12.4495 28.0938 12.6875V15.1253C28.6963 15.1118 29.3037 15.1118 29.9062 15.1253Z" fill="#00FFC3"/>
<path d="M28.0938 42.8747V45.3125C28.0973 45.5505 28.1943 45.7776 28.3639 45.9447C28.5335 46.1118 28.7619 46.2054 29 46.2054C29.2381 46.2054 29.4665 46.1118 29.6361 45.9447C29.8057 45.7776 29.9027 45.5505 29.9062 45.3125V42.8747C29.3037 42.8882 28.6963 42.8882 28.0938 42.8747Z" fill="#00FFC3"/>
</svg>
