<svg width="19" height="20" viewBox="0 0 19 20" fill="none" xmlns="http://www.w3.org/2000/svg">
<path d="M0.406043 19.6757C0.298888 19.6757 0.194645 19.6335 0.117337 19.5557C0.0154231 19.453 -0.0238864 19.304 0.014404 19.1647L1.25498 14.6542C0.482623 13.2636 0.0754064 11.6905 0.0759888 10.0936C0.0781726 4.90051 4.32272 0.67569 9.53807 0.67569C12.0677 0.676704 14.4446 1.65778 16.2312 3.43787C18.0174 5.21811 19.0007 7.58456 19 10.1012C18.9977 15.2945 14.7531 19.5196 9.53807 19.5196C9.53807 19.5196 9.53414 19.5196 9.53399 19.5196C8.01068 19.519 6.50046 19.1493 5.15579 18.4492L0.508975 19.6625C0.474907 19.6713 0.440256 19.6757 0.406043 19.6757Z" fill="#E5E5E5"/>
<path d="M0.31665 19.359L1.61397 14.643C0.81373 13.2628 0.392808 11.6971 0.393396 10.093C0.395454 5.07494 4.49765 0.992371 9.53843 0.992371C11.9846 0.993395 14.2806 1.94119 16.0072 3.66145C17.7337 5.3817 18.6842 7.66835 18.6833 10.1003C18.6811 15.1183 14.5783 19.2014 9.53843 19.2014C9.53814 19.2014 9.53858 19.2014 9.53843 19.2014H9.53446C8.00397 19.2008 6.50023 18.8187 5.16454 18.0935L0.31665 19.359ZM5.38904 16.446L5.66676 16.6098C6.83353 17.2991 8.17128 17.6637 9.53549 17.6644H9.53843C13.7277 17.6644 17.1374 14.2707 17.1391 10.0997C17.1399 8.07844 16.3501 6.17773 14.915 4.74798C13.4798 3.31824 11.5716 2.53041 9.54122 2.52954C5.34861 2.52954 1.93903 5.92278 1.93742 10.0936C1.93683 11.5229 2.33849 12.9147 3.09947 14.1192L3.28031 14.4055L2.51227 17.1968L5.38904 16.446Z" fill="white"/>
<path d="M0.633423 19.0424L1.8861 14.4888C1.11323 13.1562 0.706945 11.6443 0.707386 10.0958C0.709298 5.25075 4.67025 1.30902 9.537 1.30902C11.8991 1.31005 14.1161 2.22518 15.7829 3.8861C17.4501 5.54702 18.3676 7.75479 18.3668 10.1026C18.3647 14.9478 14.4036 18.89 9.53744 18.89C9.537 18.89 9.53759 18.89 9.53744 18.89H9.53347C8.05581 18.8894 6.60374 18.5202 5.31416 17.8206L0.633423 19.0424Z" fill="#64B161"/>
<path d="M0.406006 19.3111L1.6907 14.6197C0.898248 13.2467 0.481422 11.6891 0.482004 10.0935C0.484042 5.10159 4.54631 1.04034 9.53803 1.04034C11.9604 1.04136 14.2341 1.98421 15.9439 3.69548C17.6535 5.40675 18.5948 7.68146 18.5939 10.1007C18.5917 15.0925 14.5289 19.1543 9.53803 19.1543C9.53774 19.1543 9.53818 19.1543 9.53803 19.1543H9.5341C8.0185 19.1537 6.5294 18.7736 5.20671 18.0522L0.406006 19.3111ZM5.42903 16.4133L5.70405 16.5762C6.85946 17.2619 8.18418 17.6246 9.53512 17.6253H9.53803C13.6865 17.6253 17.063 14.2493 17.0648 10.1002C17.0655 8.0894 16.2834 6.19862 14.8623 4.77634C13.441 3.35407 11.5514 2.57036 9.5408 2.56948C5.38899 2.56948 2.0126 5.945 2.011 10.094C2.01041 11.5159 2.40817 12.9004 3.16174 14.0987L3.34082 14.3834L2.58026 17.1601L5.42903 16.4133Z" fill="white"/>
<path fill-rule="evenodd" clip-rule="evenodd" d="M7.27473 6.30865C7.10526 5.93187 6.92677 5.92429 6.76546 5.91774C6.63355 5.91206 6.48257 5.91236 6.33189 5.91236C6.18106 5.91236 5.93588 5.96914 5.72856 6.19553C5.52109 6.42192 4.9364 6.96934 4.9364 8.08267C4.9364 9.19615 5.74734 10.2719 5.86046 10.423C5.97359 10.574 7.42586 12.9317 9.72575 13.8387C11.6372 14.5926 12.0261 14.4427 12.441 14.4049C12.8559 14.3672 13.7797 13.8575 13.9683 13.3292C14.1569 12.8008 14.1569 12.348 14.1003 12.2533C14.0437 12.1591 13.8928 12.1024 13.6666 11.9893C13.4403 11.8762 12.3279 11.3286 12.1204 11.2532C11.913 11.1776 11.7621 11.1401 11.6113 11.3666C11.4603 11.5929 11.027 12.1024 10.895 12.2533C10.7629 12.4045 10.6309 12.4235 10.4046 12.3102C10.1784 12.1968 9.44956 11.958 8.58505 11.1871C7.91242 10.5874 7.45818 9.84665 7.32613 9.62011C7.19422 9.39386 7.32394 9.28205 7.42556 9.15844C7.60857 8.93584 7.91562 8.53561 7.99104 8.38478C8.06645 8.23365 8.02875 8.1016 7.97226 7.98833C7.91562 7.87521 7.47579 6.7562 7.27473 6.30865Z" fill="white"/>
</svg>
